<svg width="16" height="16" viewBox="0 0 16 16" fill="none" xmlns="http://www.w3.org/2000/svg">
<g clip-path="url(#clip0_1451_18269)">
<path d="M14.6663 3.81357L11.5997 1.24023L10.7397 2.26023L13.8063 4.83357L14.6663 3.81357ZM5.25301 2.26023L4.39967 1.24023L1.33301 3.8069L2.19301 4.8269L5.25301 2.26023ZM8.33301 5.33357H7.33301V9.33357L10.4997 11.2336L10.9997 10.4136L8.33301 8.83357V5.33357ZM7.99967 2.6669C4.68634 2.6669 1.99967 5.35357 1.99967 8.6669C1.99967 11.9802 4.67967 14.6669 7.99967 14.6669C11.313 14.6669 13.9997 11.9802 13.9997 8.6669C13.9997 5.35357 11.313 2.6669 7.99967 2.6669ZM7.99967 13.3336C5.41967 13.3336 3.33301 11.2469 3.33301 8.6669C3.33301 6.0869 5.41967 4.00023 7.99967 4.00023C10.5797 4.00023 12.6663 6.0869 12.6663 8.6669C12.6663 11.2469 10.5797 13.3336 7.99967 13.3336Z" fill="#F1F1F1" fill-opacity="0.7"/>
</g>
<defs>
<clipPath id="clip0_1451_18269">
<rect width="16" height="16" fill="white"/>
</clipPath>
</defs>
</svg>
