<svg width="14" height="17" viewBox="0 0 14 17" fill="none" xmlns="http://www.w3.org/2000/svg">
<path d="M7.20781 3.92308C7.98438 3.92308 8.95781 3.40432 9.5375 2.71265C10.0625 2.08582 10.4453 1.21043 10.4453 0.335029C10.4453 0.216148 10.4344 0.0972664 10.4125 0C9.54844 0.0324221 8.50938 0.572791 7.88594 1.29689C7.39375 1.84806 6.94531 2.71265 6.94531 3.59886C6.94531 3.72854 6.96719 3.85823 6.97813 3.90146C7.03281 3.91227 7.12031 3.92308 7.20781 3.92308ZM4.47344 17C5.53437 17 6.00469 16.2975 7.32812 16.2975C8.67344 16.2975 8.96875 16.9784 10.15 16.9784C11.3094 16.9784 12.0859 15.9193 12.8187 14.8818C13.6391 13.6929 13.9781 12.5257 14 12.4717C13.9234 12.4501 11.7031 11.5531 11.7031 9.03497C11.7031 6.85188 13.4531 5.8684 13.5516 5.79275C12.3922 4.15003 10.6312 4.1068 10.15 4.1068C8.84844 4.1068 7.7875 4.88493 7.12031 4.88493C6.39844 4.88493 5.44688 4.15003 4.32031 4.15003C2.17656 4.15003 0 5.90083 0 9.20788C0 11.2613 0.809375 13.4336 1.80469 14.8385C2.65781 16.0273 3.40156 17 4.47344 17Z" fill="white"/>
</svg>
