<svg width="25" height="24" viewBox="0 0 25 24" fill="none" xmlns="http://www.w3.org/2000/svg">
<path fill-rule="evenodd" clip-rule="evenodd" d="M6.19955 22.3796H4.37526V7.37975H4.37465V5.85839L4.37354 5.85728L4.37465 5.85616V5.82532H4.4055L8.61021 1.62061L8.61509 1.62549V1.62237H20.0642V3.21004H20.0571V22.3795H18.4341V3.21004H10.4831V6.26365H10.4807V7.37975H6.19955V20.7171L16.5196 20.7171L17.4308 22.3741H6.19955V22.3796ZM8.771 5.82532H6.73601L8.771 3.79033V5.82532ZM11.415 18.0503H16.927V16.1909H11.415V18.0503ZM9.41894 18.0503H7.51482V16.1909H9.41894V18.0503ZM7.51482 14.9531H9.41503V13.0937H7.51482V14.9531ZM16.927 14.9531H11.415V13.0937H16.927V14.9531ZM12.413 11.4803H16.9249V9.62085H12.413V11.4803ZM11.8008 9.53456L9.82666 11.5327H8.25497L7.51282 10.7468L8.29865 9.961L9.04082 10.7468L11.015 8.74872L11.8008 9.53456Z" fill="#16131B"/>
</svg>