<svg width="20" height="18" viewBox="0 0 20 18" fill="none" xmlns="http://www.w3.org/2000/svg">
<path fill-rule="evenodd" clip-rule="evenodd" d="M6.0001 0C7.65685 0 8.97365 1.30307 8.97365 2.94216C8.97365 4.83427 6.84997 7.86144 6.0001 8.9965C5.15123 7.86043 3.02654 4.83427 3.02654 2.94216C3.02654 1.30307 4.34335 0 6.0001 0ZM6.0311 2.00011C5.46418 2.00011 5.03125 2.43314 5.03125 3.00017C5.03125 3.5672 5.46418 4.00022 6.0311 4.00022C6.59801 4.00022 7.03095 3.5672 7.03095 3.00017C7.03095 2.43314 6.59801 2.00011 6.0311 2.00011Z" fill="#16131B"/>
<path d="M9.9945 5.99933L11.9972 3.99622H20V18H0V3.99722H2.0027V12.9467C2.23766 12.7257 2.48363 12.5137 2.73859 12.3147L3.9674 13.8928C3.54447 14.2228 3.15353 14.5938 2.80658 14.9958L2.0027 14.3018V15.9969H17.9973V7.46041L17.2664 6.87538C17.5394 6.53336 17.7353 6.22735 17.8653 5.99933H9.9945Z" fill="#16131B"/>
<path d="M5.3222 13.0317C5.79413 12.7917 6.29905 12.5907 6.82398 12.4347L6.25206 10.5176C5.61216 10.7086 4.99425 10.9546 4.41634 11.2486L5.3222 13.0317Z" fill="#16131B"/>
<path d="M11.7392 9.87855C12.2932 9.79855 12.8291 9.67755 13.333 9.51853L13.334 9.51953L13.9349 11.4266C13.327 11.6186 12.6851 11.7637 12.0242 11.8587L11.7392 9.87855Z" fill="#16131B"/>
<path d="M16.1476 8.00844C15.7396 8.34446 15.2927 8.64347 14.8188 8.89649L15.7606 10.6606C16.3515 10.3456 16.9095 9.97155 17.4194 9.55153L16.1476 8.00844Z" fill="#16131B"/>
<path d="M8.42572 12.0965C8.42539 12.0966 8.42506 12.0966 8.42474 12.0967H8.42573L8.42572 12.0965Z" fill="#16131B"/>
<path d="M9.9995 11.9977C9.45394 11.9977 8.92735 12.0316 8.42572 12.0965L8.16677 10.1136C8.75469 10.0366 9.36859 9.99755 9.9915 9.99755H10.0835L10.0965 11.9977H9.9995Z" fill="#16131B"/>
</svg>
