<svg width="24" height="24" viewBox="0 0 24 24" fill="none" xmlns="http://www.w3.org/2000/svg">
<path fill-rule="evenodd" clip-rule="evenodd" d="M8.0001 3C9.65685 3 10.9737 4.30307 10.9737 5.94216C10.9737 7.83427 8.84997 10.8614 8.0001 11.9965C7.15123 10.8604 5.02654 7.83427 5.02654 5.94216C5.02654 4.30307 6.34335 3 8.0001 3ZM8.0311 5.00011C7.46418 5.00011 7.03125 5.43314 7.03125 6.00017C7.03125 6.5672 7.46418 7.00022 8.0311 7.00022C8.59801 7.00022 9.03095 6.5672 9.03095 6.00017C9.03095 5.43314 8.59801 5.00011 8.0311 5.00011Z" fill="#16131B"/>
<path d="M11.9945 8.99933L13.9972 6.99622H22V21H2V6.99722H4.0027V15.9467C4.23766 15.7257 4.48363 15.5137 4.73859 15.3147L5.9674 16.8928C5.54447 17.2228 5.15353 17.5938 4.80658 17.9958L4.0027 17.3018V18.9969H19.9973V10.4604L19.2664 9.87538C19.5394 9.53336 19.7353 9.22735 19.8653 8.99933H11.9945Z" fill="#16131B"/>
<path d="M7.3222 16.0317C7.79413 15.7917 8.29905 15.5907 8.82398 15.4347L8.25206 13.5176C7.61216 13.7086 6.99425 13.9546 6.41634 14.2486L7.3222 16.0317Z" fill="#16131B"/>
<path d="M13.7392 12.8786C14.2932 12.7985 14.8291 12.6775 15.333 12.5185L15.334 12.5195L15.9349 14.4266C15.327 14.6186 14.6851 14.7637 14.0242 14.8587L13.7392 12.8786Z" fill="#16131B"/>
<path d="M18.1476 11.0084C17.7396 11.3445 17.2927 11.6435 16.8188 11.8965L17.7606 13.6606C18.3515 13.3456 18.9095 12.9715 19.4194 12.5515L18.1476 11.0084Z" fill="#16131B"/>
<path d="M10.4257 15.0965C10.4254 15.0966 10.4251 15.0966 10.4247 15.0967H10.4257L10.4257 15.0965Z" fill="#16131B"/>
<path d="M11.9995 14.9977C11.4539 14.9977 10.9273 15.0316 10.4257 15.0965L10.1668 13.1136C10.7547 13.0366 11.3686 12.9976 11.9915 12.9976H12.0835L12.0965 14.9977H11.9995Z" fill="#16131B"/>
</svg>
