<svg width="20" height="16" viewBox="0 0 20 16" fill="none" xmlns="http://www.w3.org/2000/svg">
<path d="M0 15.003V0H20V15.003H6.01366L8.00391 13.0026H17.9979V2.0004H2.0021V13.0026H5V15.003H3.00315H0Z" fill="#A48CFA"/>
<path d="M12.0137 4.0008H4.0042V6.0012H12.0137V4.0008Z" fill="#A48CFA"/>
<path d="M9.00946 8.0016H4.0042V10.002H9.00946V8.0016Z" fill="#A48CFA"/>
<path fill-rule="evenodd" clip-rule="evenodd" d="M16.0298 7.77488C16.5039 7.45977 16.8164 6.9208 16.8164 6.30884C16.8164 5.33735 16.0289 4.5498 15.0574 4.5498C14.0859 4.5498 13.2983 5.33735 13.2983 6.30884C13.2983 6.89673 13.5867 7.41727 14.0298 7.73668V10.0759L15.0416 9.15899L16.0298 10.0759V7.77488Z" fill="#A48CFA"/>
</svg>
