<svg width="20" height="20" viewBox="0 0 20 20" fill="none" xmlns="http://www.w3.org/2000/svg">
<path fill-rule="evenodd" clip-rule="evenodd" d="M2 18H18V2H17L15 0H20V20H0V0H14V2H2V18ZM13.122 14.1018L10.1992 17L9.04476 15.8456L9.92897 14.9614C9.32313 14.945 8.73775 14.8181 8.17283 14.5807C7.60792 14.3433 7.09623 13.9871 6.63775 13.5123C6.14652 13.0374 5.7781 12.493 5.53248 11.8789C5.28687 11.2649 5.16406 10.6386 5.16406 10C5.16406 9.50877 5.23365 9.02573 5.37283 8.55088C5.51202 8.07602 5.72897 7.61754 6.02371 7.17544L7.22722 8.35439C7.07985 8.61637 6.96933 8.89474 6.89564 9.18947C6.82196 9.48421 6.78511 9.76257 6.78511 10.0246C6.78511 10.4339 6.87108 10.8474 7.04301 11.2649C7.21494 11.6825 7.45646 12.055 7.76757 12.3825C8.07868 12.6772 8.42664 12.9023 8.81143 13.0579C9.19623 13.2135 9.60149 13.2994 10.0272 13.3158L9.04476 12.3579L10.2237 11.2035L13.122 14.1018ZM14.9272 11.4491C14.788 11.924 14.5711 12.3825 14.2763 12.8246L13.0728 11.6456C13.2202 11.3836 13.3307 11.1053 13.4044 10.8105C13.4781 10.5158 13.5149 10.2374 13.5149 9.97544C13.5149 9.56608 13.429 9.15263 13.257 8.73509C13.0851 8.31754 12.8436 7.94503 12.5325 7.61754C12.2214 7.32281 11.8652 7.09766 11.4641 6.94211C11.0629 6.78655 10.6658 6.6924 10.2728 6.65965L11.2553 7.64211L10.0763 8.79649L7.1781 5.89825L10.1009 3L11.2553 4.15439L10.3956 5.0386C10.9851 5.05497 11.5664 5.18187 12.1395 5.4193C12.7126 5.65673 13.2284 6.00468 13.6869 6.46316C14.1781 6.95439 14.5424 7.50702 14.7799 8.12105C15.0173 8.73509 15.136 9.3614 15.136 10C15.136 10.4912 15.0664 10.9743 14.9272 11.4491Z" fill="#16131B"/>
</svg>
