<svg width="20" height="20" viewBox="0 0 20 20" fill="none" xmlns="http://www.w3.org/2000/svg">
<path fill-rule="evenodd" clip-rule="evenodd" d="M2 10C2 14.4183 5.58172 18 10 18C14.4183 18 18 14.4183 18 10C18 5.58172 14.4183 2 10 2C5.58172 2 2 5.58172 2 10ZM10 0C4.47715 0 0 4.47715 0 10C0 15.5228 4.47715 20 10 20C15.5228 20 20 15.5228 20 10C20 4.47715 15.5228 0 10 0Z" fill="#16131B"/>
<path d="M10.1213 13.7071L15.4142 8.41421L14 7L8.70711 12.2929L6.41421 10L5 11.4142L7.29288 13.7071H10.1213Z" fill="#16131B"/>
</svg>
