<svg width="9" height="17" viewBox="0 0 9 17" fill="none" xmlns="http://www.w3.org/2000/svg">
<path fill-rule="evenodd" clip-rule="evenodd" d="M7.875 12.375L7.87478 4.59371L9 3.79052V12.375C9 14.655 7.155 16.5 4.875 16.5C2.595 16.5 0.75 14.655 0.75 12.375V3C0.75 1.3425 2.0925 0 3.75 0C5.4075 0 6.75 1.3425 6.75 3V10.875C6.75 11.91 5.91 12.75 4.875 12.75C3.84 12.75 3 11.91 3 10.875V4.59344L4.125 3.79041V10.875C4.125 11.2875 4.4625 11.625 4.875 11.625C5.2875 11.625 5.625 11.2875 5.625 10.875V3C5.625 1.965 4.785 1.125 3.75 1.125C2.715 1.125 1.875 1.965 1.875 3V12.375C1.875 14.0325 3.2175 15.375 4.875 15.375C6.5325 15.375 7.875 14.0325 7.875 12.375Z" fill="#16131B"/>
</svg>
