<svg width="24" height="24" viewBox="0 0 24 24" fill="none" xmlns="http://www.w3.org/2000/svg">
<path fill-rule="evenodd" clip-rule="evenodd" d="M8 2.7H19C19.1657 2.7 19.3 2.83431 19.3 3V4H21V3C21 1.89543 20.1046 1 19 1H8C6.89543 1 6 1.89543 6 3V17C6 18.1046 6.89543 19 8 19H19C20.1046 19 21 18.1046 21 17V6L19.3 5.15V17C19.3 17.1657 19.1657 17.3 19 17.3H8C7.83431 17.3 7.7 17.1657 7.7 17V3C7.7 2.83431 7.83431 2.7 8 2.7Z" fill="#16131B"/>
<path d="M5 5.5H3V20C3 22 4.33333 22 5 22H17V20H5V5.5Z" fill="#16131B"/>
</svg>
