<svg width="24" height="24" viewBox="0 0 24 24" fill="none" xmlns="http://www.w3.org/2000/svg">
<path fill-rule="evenodd" clip-rule="evenodd" d="M2.12109 2H4.20115V2.00021H19.8018V2.00021H21.8819V2.00021V4.08027V16.5566H21.8796L21.8819 16.5606L12.0046 21.9981L12.0041 21.997L12.0023 22.0002L2.1213 16.5606L2.12366 16.5564H2.12109V2ZM4.20115 15.3312L12.0016 19.6254L19.8018 15.3313V4.08027H4.20115V15.3312Z" fill="#16131B"/>
<path fill-rule="evenodd" clip-rule="evenodd" d="M12.0006 4.99927C13.658 4.99927 15.0067 6.34802 15.0067 8.0054C15.0067 9.66278 13.658 11.0115 12.0006 11.0115C10.3432 11.0115 8.99446 9.66278 8.99446 8.0054C8.99446 6.34802 10.3432 4.99927 12.0006 4.99927ZM10.3305 8.0054C10.3305 8.92662 11.0801 9.67548 12.0006 9.67548C12.9211 9.67548 13.6707 8.92662 13.6707 8.0054C13.6707 7.08419 12.9211 6.33533 12.0006 6.33533C11.0801 6.33533 10.3305 7.08419 10.3305 8.0054Z" fill="#16131B"/>
<path d="M5.32031 18.3599H6.65637C6.65637 15.4132 9.05393 13.0156 12.0006 13.0156V11.6796C8.3171 11.6796 5.32031 14.6764 5.32031 18.3599Z" fill="#16131B"/>
<path d="M13.7923 11.9241L12.6586 13.0577C15.296 13.3831 17.3449 15.6363 17.3449 18.3599H18.6809C18.6809 15.297 16.6087 12.709 13.7923 11.9241Z" fill="#16131B"/>
</svg>
