<svg width="16" height="16" viewBox="0 0 16 16" fill="none" xmlns="http://www.w3.org/2000/svg">
<path fill-rule="evenodd" clip-rule="evenodd" d="M13.2289 14.9199H12.0128V14.9163H5.61114L4.50517 13.8116H12.0128V4.92004H9.15865V4.17598H9.15708V2.14024H3.85638V14.9199H2.77437V2.14024H2.76965V1.08179H10.4024V1.08387L10.4056 1.08062L13.2088 3.88375H13.2294V3.90432L13.2301 3.90506L13.2294 3.90581V4.92004H13.2289V14.9199ZM11.6551 3.88375H10.2985V2.5271L11.6551 3.88375ZM4.86119 11.3671H11.136V10.1275H4.86119V11.3671ZM11.136 9.30231H4.86119V8.06267H11.136V9.30231ZM4.86119 7.23838H11.136V5.99874H4.86119V7.23838Z" fill="#16131B"/>
</svg>
