<svg width="25" height="25" viewBox="0 0 25 25" fill="none" xmlns="http://www.w3.org/2000/svg">
<path d="M18.7268 17.0234H5.99951V17.895H18.7268V17.0234Z" fill="white"/>
<path d="M17.9033 15.2721L17.9033 17.895L18.7268 17.895L18.7268 15.2721L17.9033 15.2721Z" fill="white"/>
<path d="M5.99951 15.2721L5.99951 17.895L6.85047 17.895L6.85047 15.2721L5.99951 15.2721Z" fill="white"/>
<path d="M17.1924 13.9089L16.4274 13.1111L13.4522 16.2123L14.9822 16.2123L17.1924 13.9089Z" fill="white"/>
<path d="M12.9041 16.2123L12.9041 7.19067L11.822 7.19067L11.822 16.2123L12.9041 16.2123Z" fill="white"/>
<path d="M9.74388 16.2123L7.53373 13.9089L8.2993 13.1111L11.2745 16.2123L9.74388 16.2123Z" fill="white"/>
<circle cx="12.3633" cy="12.7072" r="11.5" stroke="white"/>
</svg>
