<svg width="21" height="12" viewBox="0 0 21 12" fill="none" xmlns="http://www.w3.org/2000/svg">
<path d="M4.75193 10.6182C4.40705 10.7215 4.0356 10.4739 4.0356 10.1139V6.7703C4.0356 6.58697 4.13536 6.41723 4.29968 6.33595C6.36091 5.3163 8.91847 5.14032 9.97777 5.1843V11.2766C8.42936 9.95414 6.16053 10.1962 4.75193 10.6182Z" fill="#B7A5FA" fill-opacity="0.3"/>
<path d="M15.2036 10.6182C15.5485 10.7215 15.92 10.4739 15.92 10.1139V6.7703C15.92 6.58697 15.8202 6.41723 15.6559 6.33595C13.5947 5.3163 11.0371 5.14032 9.97777 5.1843V11.2766C11.5262 9.95414 13.795 10.1962 15.2036 10.6182Z" fill="#A48CFA"/>
<path d="M9.97779 4.80568V0.711914L0.450918 3.85325C-0.00805235 4.00459 -0.00661159 4.65435 0.453026 4.80365L3.98886 5.95217C4.11433 5.99292 4.25058 5.98184 4.36967 5.92508C6.53095 4.89489 8.99328 4.74727 9.97779 4.80568Z" fill="#A48CFA"/>
<path d="M9.97779 4.80568V0.711914L19.5047 3.85325C19.9636 4.00459 19.9622 4.65435 19.5026 4.80365L15.9667 5.95217C15.8412 5.99292 15.705 5.98184 15.5859 5.92508C13.4246 4.89489 10.9623 4.74727 9.97779 4.80568Z" fill="#B7A5FA" fill-opacity="0.3"/>
<path d="M19.1348 11.2479C18.9245 11.2479 18.7765 11.0413 18.8442 10.8422L19.4763 8.98343C19.494 8.93159 19.503 8.8772 19.503 8.82244V4.31861C19.503 4.23584 19.5701 4.16874 19.6528 4.16874V11.2479H19.1348Z" fill="#B7A5FA" fill-opacity="0.3"/>
<path d="M19.6528 4.16874C19.7356 4.16874 19.8027 4.23584 19.8027 4.31861V8.82244C19.8027 8.8772 19.8117 8.93159 19.8293 8.98343L20.4615 10.8422C20.5292 11.0413 20.3812 11.2479 20.1709 11.2479H19.6528V4.16874Z" fill="#B7A5FA" fill-opacity="0.3"/>
</svg>
