<svg width="262" height="52" viewBox="0 0 262 52" fill="none" xmlns="http://www.w3.org/2000/svg">
<g clip-path="url(#clip0_1590_23861)">
<path d="M38.8652 33.5804C38.8652 21.3825 47.6815 15.6642 55.345 15.6642C59.7545 15.6642 63.2129 17.3174 65.4504 19.7293V0.503296H74.7409V50.8098H65.4504V46.9496C63.2129 49.6384 59.6183 51.4966 55.2088 51.4966C48.0195 51.4966 38.8652 45.7091 38.8652 33.5804ZM65.7229 33.5112C65.7229 28.4105 62.0601 24.2762 57.0428 24.2762C52.0255 24.2762 47.954 28.2029 47.954 33.5112C47.954 38.8195 51.8866 42.8153 57.0428 42.8153C62.199 42.8153 65.7229 38.6118 65.7229 33.5112Z" fill="#16131B"/>
<path d="M115.151 33.5804C115.151 21.3825 123.968 15.6642 131.631 15.6642C136.041 15.6642 139.499 17.3174 141.736 19.7293V16.3537H151.027V50.8098H141.736V46.9497C139.499 49.6385 135.904 51.4966 131.495 51.4966C124.306 51.4966 115.151 45.7092 115.151 33.5804ZM142.009 33.5112C142.009 28.4106 138.346 24.2763 133.329 24.2763C128.312 24.2763 124.24 28.2029 124.24 33.5112C124.24 38.8195 128.173 42.8154 133.329 42.8154C138.485 42.8154 142.009 38.6119 142.009 33.5112Z" fill="#16131B"/>
<path d="M155.982 16.3533H165.205V20.2134C167.374 17.3889 170.699 15.6638 174.563 15.6638C182.565 15.6638 187.38 20.9002 187.38 29.7918V50.8094H177.953V31.0324C177.953 26.4135 175.852 23.7274 171.713 23.7274C168.186 23.7274 165.27 26.2086 165.27 31.996V50.8094H155.979V16.3533H155.982Z" fill="#16131B"/>
<path d="M192.339 42.4027L210.176 24.6915H192.611V16.3537H222.655V24.83L204.818 42.472H222.993V50.8098H192.339V42.4027Z" fill="#16131B"/>
<path d="M226.126 33.58C226.126 21.3821 234.942 15.6638 242.606 15.6638C247.015 15.6638 250.474 17.317 252.711 19.7289V16.3533H262.002V50.8094H252.711V46.9493C250.474 49.638 246.879 51.4962 242.47 51.4962C235.28 51.4962 226.126 45.7087 226.126 33.58ZM252.984 33.5108C252.984 28.4101 249.321 24.2758 244.304 24.2758C239.286 24.2758 235.215 28.2025 235.215 33.5108C235.215 38.8191 239.147 42.815 244.304 42.815C249.46 42.815 252.984 38.6115 252.984 33.5108Z" fill="#16131B"/>
<path d="M107.518 16.353L88.9897 48.9083V24.9677H79.6992V50.8091H97.8846L117.508 16.353H107.518Z" fill="#16131B"/>
<path d="M25.4061 39.4397C23.732 41.8063 21.0622 43.2279 17.9732 43.2279C13.0895 43.2279 10.0372 40.7468 8.95254 36.9559H35.1316V33.5111C35.1316 23.5866 28.0104 15.6614 17.6352 15.6614C7.86786 15.6641 0 23.6585 0 33.5803C0 43.5021 7.32552 51.4965 17.9051 51.4965C24.9765 51.4965 30.1326 48.1502 33.1482 43.2891L25.4061 39.4397ZM17.7007 23.9327C21.6333 23.9327 24.5494 25.7935 25.7703 29.3768H9.35864C10.7839 26.1396 13.7681 23.9327 17.7007 23.9327Z" fill="#16131B"/>
</g>
<defs>
<clipPath id="clip0_1590_23861">
<rect width="262" height="50.9933" fill="#16131B" transform="translate(0 0.503357)"/>
</clipPath>
</defs>
</svg>
