<svg width="24" height="24" viewBox="0 0 24 24" fill="none" xmlns="http://www.w3.org/2000/svg">
<path fill-rule="evenodd" clip-rule="evenodd" d="M6.23663 9.20505C6.23663 12.3878 8.81677 14.968 11.9995 14.968C15.1823 14.968 17.7625 12.3878 17.7625 9.20505C17.7625 6.02228 15.1823 3.44213 11.9995 3.44213C8.81677 3.44213 6.23663 6.02228 6.23663 9.20505ZM11.9995 2.0014C8.02108 2.0014 4.7959 5.22659 4.7959 9.20505C4.7959 11.889 6.26372 14.2301 8.44043 15.4695V21.9986H10.3306L11.9371 20.0885L13.6006 21.9986H15.5578V15.47C17.735 14.2307 19.2032 11.8893 19.2032 9.20505C19.2032 5.22659 15.978 2.0014 11.9995 2.0014ZM12.12 5.08295L13.4416 7.50612L16.1545 8.01417L14.2583 10.0198L14.6135 12.757L12.12 11.5734L9.62659 12.757L9.98176 10.0198L8.08555 8.01417L10.7985 7.50612L12.12 5.08295Z" fill="#F1F1F1"/>
</svg>
