<svg width="16" height="16" viewBox="0 0 16 16" fill="none" xmlns="http://www.w3.org/2000/svg">
<path fill-rule="evenodd" clip-rule="evenodd" d="M7.99921 3.09333C9.50143 3.09333 10.5148 3.74222 11.0925 4.28444L13.3503 2.08C11.9637 0.791111 10.1592 0 7.99921 0C4.87032 0 2.16809 1.79556 0.852539 4.40889L3.43921 6.41778C4.08809 4.48889 5.88365 3.09333 7.99921 3.09333Z" fill="#EA4335"/>
<path fill-rule="evenodd" clip-rule="evenodd" d="M15.68 8.17688C15.68 7.5191 15.6267 7.0391 15.5111 6.54132H8V9.51021H12.4089C12.32 10.248 11.84 11.3591 10.7733 12.1058L13.2978 14.0613C14.8089 12.6658 15.68 10.6124 15.68 8.17688Z" fill="#4285F4"/>
<path fill-rule="evenodd" clip-rule="evenodd" d="M3.44889 9.58087C3.28 9.08309 3.18222 8.54975 3.18222 7.99864C3.18222 7.44753 3.28 6.9142 3.44 6.41642L0.853333 4.40753C0.311111 5.49198 0 6.70975 0 7.99864C0 9.28753 0.311111 10.5053 0.853333 11.5898L3.44889 9.58087Z" fill="#FBBC05"/>
<path fill-rule="evenodd" clip-rule="evenodd" d="M7.99911 16.0006C10.1591 16.0006 11.9724 15.2895 13.2969 14.0628L10.7724 12.1073C10.0969 12.5784 9.19022 12.9073 7.99911 12.9073C5.88355 12.9073 4.08799 11.5117 3.44799 9.58282L0.861328 11.5917C2.17688 14.205 4.87022 16.0006 7.99911 16.0006Z" fill="#34A853"/>
</svg>
