<svg width="24" height="24" viewBox="0 0 24 24" fill="none" xmlns="http://www.w3.org/2000/svg">
<circle cx="10.4542" cy="7.59108" r="2.78986" stroke="white" stroke-width="1.66667"/>
<mask id="path-2-inside-1_10709_18112" fill="white">
<path fill-rule="evenodd" clip-rule="evenodd" d="M4.35824 14.3388C2.84828 15.8488 2 17.8967 2 20.0321H3.36774C3.36774 18.2595 4.07192 16.5594 5.32538 15.306C6.57883 14.0525 8.27888 13.3483 10.0515 13.3483C10.7116 13.3483 11.3617 13.446 11.9823 13.6333L13.564 12.7872C12.4793 12.2613 11.2799 11.9806 10.0515 11.9806C7.91613 11.9806 5.86819 12.8289 4.35824 14.3388Z"/>
</mask>
<path fill-rule="evenodd" clip-rule="evenodd" d="M4.35824 14.3388C2.84828 15.8488 2 17.8967 2 20.0321H3.36774C3.36774 18.2595 4.07192 16.5594 5.32538 15.306C6.57883 14.0525 8.27888 13.3483 10.0515 13.3483C10.7116 13.3483 11.3617 13.446 11.9823 13.6333L13.564 12.7872C12.4793 12.2613 11.2799 11.9806 10.0515 11.9806C7.91613 11.9806 5.86819 12.8289 4.35824 14.3388Z" fill="white"/>
<path d="M2 20.0321H1.16667V20.8655H2V20.0321ZM3.36774 20.0321V20.8655H4.20107V20.0321H3.36774ZM10.0515 13.3483V12.515V13.3483ZM11.9823 13.6333L11.7415 14.4311L12.0715 14.5306L12.3754 14.3681L11.9823 13.6333ZM13.564 12.7872L13.9571 13.522L15.399 12.7506L13.9276 12.0373L13.564 12.7872ZM2.83333 20.0321C2.83333 18.1177 3.59382 16.2818 4.94749 14.9281L3.76898 13.7496C2.10275 15.4158 1.16667 17.6757 1.16667 20.0321H2.83333ZM3.36774 19.1988H2V20.8655H3.36774V19.1988ZM4.73612 14.7167C3.32639 16.1264 2.53441 18.0385 2.53441 20.0321H4.20107C4.20107 18.4805 4.81746 16.9924 5.91463 15.8952L4.73612 14.7167ZM10.0515 12.515C8.05786 12.515 6.14585 13.307 4.73612 14.7167L5.91463 15.8952C7.0118 14.798 8.49989 14.1817 10.0515 14.1817V12.515ZM12.223 12.8355C11.525 12.6248 10.7939 12.515 10.0515 12.515V14.1817C10.6294 14.1817 11.1983 14.2671 11.7415 14.4311L12.223 12.8355ZM13.171 12.0523L11.5892 12.8985L12.3754 14.3681L13.9571 13.522L13.171 12.0523ZM10.0515 12.8139C11.1527 12.8139 12.228 13.0655 13.2005 13.537L13.9276 12.0373C12.7306 11.457 11.407 11.1473 10.0515 11.1473V12.8139ZM4.94749 14.9281C6.30117 13.5744 8.13714 12.8139 10.0515 12.8139V11.1473C7.69512 11.1473 5.43522 12.0833 3.76898 13.7496L4.94749 14.9281Z" fill="#16131B" mask="url(#path-2-inside-1_10709_18112)"/>
<circle cx="16.8545" cy="11.6155" r="1.87687" stroke="white" stroke-width="1.12125"/>
<path d="M11.167 20.0321C11.167 18.5955 11.7377 17.2178 12.7535 16.202C13.7693 15.1862 15.1471 14.6155 16.5836 14.6155C18.0202 14.6155 19.398 15.1862 20.4138 16.202C21.4296 17.2178 22.0003 18.5955 22.0003 20.0321L21.0802 20.0321C21.0802 18.8396 20.6064 17.6959 19.7632 16.8526C18.9199 16.0094 17.7762 15.5356 16.5836 15.5356C15.3911 15.5356 14.2474 16.0094 13.4041 16.8526C12.5609 17.6959 12.0871 18.8396 12.0871 20.0321H11.167Z" fill="white"/>
</svg>
