<svg width="21" height="20" viewBox="0 0 21 20" fill="none" xmlns="http://www.w3.org/2000/svg">
<path fill-rule="evenodd" clip-rule="evenodd" d="M6.84555 12.8202L8.0816 11.3443C8.02835 11.2681 7.97863 11.1893 7.93266 11.1081C7.74179 10.771 7.61919 10.3996 7.57185 10.0151C7.52451 9.63065 7.55337 9.24061 7.65677 8.86728C7.76017 8.49396 7.93608 8.14465 8.17448 7.83931C8.41287 7.53397 8.70908 7.27857 9.04617 7.08771C9.38327 6.89684 9.75466 6.77423 10.1391 6.7269C10.5236 6.67956 10.9137 6.70841 11.287 6.81181C11.4422 6.85479 11.5932 6.9103 11.7386 6.97762L12.4708 6.1034C11.8368 5.97226 11.1853 5.90893 10.5178 5.90893C8.38052 5.90893 6.50319 6.55696 4.73583 8.00205L4.73579 8.00209L4.71726 8.01727C4.06729 8.55111 3.57762 8.9707 3.23912 9.31648C3.10019 9.45839 2.98673 9.58787 2.89809 9.70772C2.98733 9.82835 3.10177 9.96502 3.24206 10.1169C3.57932 10.4821 4.06596 10.9353 4.71097 11.4654L4.71101 11.4654L4.71726 11.4705C5.40702 12.037 6.11348 12.4847 6.84555 12.8202ZM5.93309 13.9097L3.99367 16.2255L5.01386 17.0799L7.21233 14.4548C8.27622 14.8261 9.38672 15.0165 10.5178 15.0165C12.9233 15.0165 15.2293 14.1551 17.1867 12.5256L17.2383 12.4824L17.2385 12.4822C17.9336 11.8969 18.4656 11.3153 18.8333 10.8649V8.57253C18.47 8.12745 17.9461 7.55423 17.2629 6.97588L17.2629 6.97583C17.2377 6.95451 17.2123 6.93318 17.1867 6.91185C16.4395 6.28985 15.6416 5.77976 14.8067 5.38678L15.8109 4.18764L14.7907 3.33325L13.4984 4.87635C12.5353 4.57509 11.5354 4.42092 10.5178 4.42092C8.11301 4.42092 5.80135 5.28187 3.83275 6.91063L3.81833 6.92258L3.81823 6.92266C3.10188 7.51725 2.55386 8.11026 2.17647 8.56808L2.1777 8.56685V10.8685L2.16675 10.8576C2.54694 11.32 3.10309 11.9231 3.83275 12.5268L3.84289 12.5352L3.84293 12.5352C4.50419 13.0811 5.20406 13.5405 5.93309 13.9097ZM13.8632 6.51332C14.7218 6.84592 15.5428 7.32094 16.3215 7.95103L16.3215 7.95108C16.3486 7.97296 16.3756 7.99502 16.4025 8.01727C17.071 8.56967 17.46 8.9994 17.7383 9.35123C17.84 9.47972 17.9269 9.59782 18.0072 9.70772C17.978 9.74761 17.948 9.78927 17.9167 9.83266L17.9166 9.83285C17.8607 9.91026 17.8009 9.99319 17.7349 10.0815C17.4568 10.4535 17.0683 10.9205 16.4025 11.4705L16.3465 11.5164L16.3465 11.5165C14.5997 12.9397 12.639 13.5976 10.5178 13.5976C9.70318 13.5976 8.92625 13.5007 8.17878 13.3008L9.07097 12.2355C9.63573 12.5481 10.2898 12.668 10.9328 12.5725C11.6571 12.465 12.3156 12.0919 12.78 11.5258C13.2445 10.9598 13.4819 10.2412 13.4459 9.50979C13.415 8.88042 13.1835 8.28032 12.7896 7.79522L13.8632 6.51332ZM10.9425 7.92825L8.87773 10.3937C8.80257 10.2287 8.75288 10.053 8.73065 9.87245C8.70205 9.64015 8.71948 9.40449 8.78196 9.17892C8.84443 8.95336 8.95072 8.74231 9.09476 8.55782C9.2388 8.37333 9.41777 8.21902 9.62144 8.1037C9.82512 7.98838 10.0495 7.9143 10.2818 7.8857C10.5029 7.85848 10.727 7.87295 10.9425 7.92825ZM9.84428 11.3121C10.1334 11.4264 10.4495 11.4639 10.7614 11.4176C11.199 11.3527 11.5968 11.1273 11.8775 10.7852C12.1581 10.4432 12.3015 10.009 12.2798 9.56713C12.2649 9.26436 12.1732 8.97279 12.0163 8.71859L9.84428 11.3121Z" fill='#16131B'/>
</svg>
