<svg width="20" height="21" viewBox="0 0 20 21" fill="none" xmlns="http://www.w3.org/2000/svg">
<path fill-rule="evenodd" clip-rule="evenodd" d="M4.07836 3.89131V0.499023H1.70971V4.02877L4.98682 6.38194C6.44701 4.61706 7.84228 4.02877 9.84327 4.02877C13.8332 4.02877 17.0758 7.19378 17.0758 11.0883C17.0758 14.9828 13.8332 18.1478 9.84327 18.1478C6.69713 18.1478 4.0211 16.1829 3.03266 13.4414H0.525391C1.59821 17.5006 5.34706 20.5009 9.84327 20.5009C15.1712 20.5009 19.4746 16.2888 19.4746 11.0883C19.4746 5.88777 15.1712 1.67561 9.84327 1.67561C7.56385 1.67561 5.39806 2.53702 4.07836 3.89131ZM9.92214 5.44214H8.40961V11.9745L9.27341 13.383L13.6085 16.2731L14.4749 14.8798L9.92214 11.9503V5.44214Z" fill="#16131B"/>
</svg>
