<svg width="18" height="18" viewBox="0 0 18 18" fill="none" xmlns="http://www.w3.org/2000/svg">
<g clip-path="url(#clip0_1208_7247)">
<path fill-rule="evenodd" clip-rule="evenodd" d="M1.3123 15.3477C0.99861 15.2889 0.720267 15.1352 0.477273 14.8864C0.159091 14.5607 0 14.1729 0 13.7231V4.27692C0 3.8271 0.159091 3.43932 0.477273 3.11359C0.795455 2.78786 1.17424 2.625 1.61364 2.625H16.3864C16.8258 2.625 17.2045 2.78786 17.5227 3.11359C17.8409 3.43932 18 3.8271 18 4.27692V13.7231C18 14.1729 17.8409 14.5607 17.5227 14.8864C17.2045 15.2121 16.8258 15.375 16.3864 15.375H3.56182L2.21077 14.0255H16.3864C16.4621 14.0255 16.5303 13.9945 16.5909 13.9325C16.6515 13.8704 16.6818 13.8006 16.6818 13.7231V4.27692C16.6818 4.19936 16.6515 4.12956 16.5909 4.06752C16.5303 4.00547 16.4621 3.97445 16.3864 3.97445H1.61364C1.53788 3.97445 1.4697 4.00547 1.40909 4.06752C1.34849 4.12956 1.31818 4.19936 1.31818 4.27692V13.2449H1.3123V15.3477ZM2.16487 15.375H2.16559V14.0255H2.16487V15.375ZM5.04545 12.6528H12.9545V11.187H5.04545V12.6528ZM2.63636 9.72126H4.04545V8.27874H2.63636V9.72126ZM5.47727 9.72126H6.88636V8.27874H5.47727V9.72126ZM8.29545 9.72126H9.70455V8.27874H8.29545V9.72126ZM11.1364 9.72126H12.5455V8.27874H11.1364V9.72126ZM13.9545 9.72126H15.3636V8.27874H13.9545V9.72126ZM2.63636 6.78969H4.04545V5.34717H2.63636V6.78969ZM5.47727 6.78969H6.88636V5.34717H5.47727V6.78969ZM8.29545 6.78969H9.70455V5.34717H8.29545V6.78969ZM11.1364 6.78969H12.5455V5.34717H11.1364V6.78969ZM13.9545 6.78969H15.3636V5.34717H13.9545V6.78969Z" fill="#16131B"/>
</g>
<defs>
<clipPath id="clip0_1208_7247">
<rect width="18" height="18" fill="white"/>
</clipPath>
</defs>
</svg>
