<svg width="24" height="24" viewBox="0 0 24 24" fill="none" xmlns="http://www.w3.org/2000/svg">
<path d="M16.4003 4C14.8904 4 13.4764 4.57782 12.4175 5.6271L12.0095 6.03082L11.6015 5.62805C10.5416 4.57876 9.12664 4.00094 7.61872 4.00094C4.41588 4.00094 2 6.2228 2 9.16833C2 10.5188 2.48798 11.8165 3.53493 13.2516L9.03665 19.9991H11.5575L5.16984 12.1666C4.37188 11.0674 3.9999 10.1141 3.9999 9.16833C3.9999 7.26456 5.52182 5.88307 7.61872 5.88307C8.57367 5.88307 9.47363 6.25291 10.1526 6.92578L12.0095 8.76179L13.8674 6.92578C14.5454 6.25386 15.4453 5.88402 16.4013 5.88402C18.4862 5.88402 20.0001 7.2655 20.0001 9.16928C20.0001 10.1329 19.6341 11.0862 18.8502 12.1675L12.4625 20H14.9834L20.4531 13.293L20.4841 13.2526C21.504 11.8532 22 10.5178 22 9.16928C22 6.22374 19.5931 4.00188 16.4013 4.00188L16.4003 4Z" fill="#16131B"/>
<path d="M4 11.5L11 19.9999H13L19.5 12.4999L20.3622 11.0964V9.99994L21 8.99994L20.5 7.99994L20 6.898L19.2451 5.99994L18.5 5.49997L17.3531 5.16821H16L14.5 5.49997L13 6.49997L12 7.61879L11.5 6.99997L10.1635 5.99997L9.5 5.49997H8H6.5L4.5 5.99997L3.5 7.49997V8.99997L4 11.5Z" fill="#16131B"/>
</svg>
