<svg width="20" height="16" viewBox="0 0 20 16" fill="none" xmlns="http://www.w3.org/2000/svg">
<path d="M14.4003 0C12.8904 0 11.4764 0.577815 10.4175 1.6271L10.0095 2.03082L9.60152 1.62805C8.54157 0.578757 7.12664 0.000941985 5.61872 0.000941985C2.41588 0.000941985 0 2.2228 0 5.16833C0 6.51876 0.487979 7.8165 1.53493 9.25162L7.03665 15.9991H9.55752L3.16984 8.16657C2.37188 7.0674 1.9999 6.11411 1.9999 5.16833C1.9999 3.26456 3.52182 1.88307 5.61872 1.88307C6.57367 1.88307 7.47363 2.25291 8.15259 2.92578L10.0095 4.76179L11.8674 2.92578C12.5454 2.25386 13.4453 1.88402 14.4013 1.88402C16.4862 1.88402 18.0001 3.2655 18.0001 5.16928C18.0001 6.13293 17.6341 7.08623 16.8502 8.16751L10.4625 16H12.9834L18.4531 9.29303L18.4841 9.25256C19.504 7.8532 20 6.51782 20 5.16928C20 2.22374 17.5931 0.00188397 14.4013 0.00188397L14.4003 0Z" fill="#16131B"/>
</svg>
