<svg width="20" height="20" viewBox="0 0 20 20" fill="none" xmlns="http://www.w3.org/2000/svg">
<path fill-rule="evenodd" clip-rule="evenodd" d="M3.02092 2.83813C4.8883 1.0184 7.39259 0 9.99999 0V1.86756C7.87954 1.86756 5.84294 2.69576 4.3243 4.17565C2.80566 5.65553 1.92509 7.67004 1.87028 9.78978C1.81547 11.9095 2.59076 13.9669 4.03089 15.5232C5.47103 17.0796 7.4621 18.012 9.57972 18.1216C11.6973 18.2311 13.774 17.5093 15.3671 16.1099C16.9602 14.7104 17.9437 12.7441 18.108 10.63C18.2723 8.51596 17.6043 6.42132 16.2465 4.79259C14.8896 3.16484 12.9509 2.13111 10.8432 1.91139L12.5097 0.320024C14.5216 0.841623 16.3343 1.98127 17.681 3.59675C19.3506 5.5995 20.1719 8.17516 19.9699 10.7747C19.7679 13.3743 18.5586 15.7922 16.5996 17.5129C14.6407 19.2337 12.0871 20.1214 9.48321 19.9866C6.87929 19.8519 4.43098 18.7054 2.66013 16.7916C0.889278 14.8778 -0.0640507 12.348 0.00334479 9.74151C0.0707402 7.13498 1.15353 4.65785 3.02092 2.83813Z" fill="#16131B"/>
<circle cx="6.81201" cy="13.05" r="2" fill="#16131B"/>
<circle cx="13.189" cy="13.0503" r="2" fill="#16131B"/>
<circle cx="10.0188" cy="6.95031" r="2" fill="#16131B"/>
</svg>
