<svg width="16" height="20" viewBox="0 0 16 20" fill="none" xmlns="http://www.w3.org/2000/svg">
<path d="M15.2983 15.566C14.8068 14.5595 14.028 12.6123 14.028 11.6737V8.0084C14.028 5.90335 12.8358 3.95122 11.001 2.95367V2.86571C11.001 1.28542 9.63264 0 7.94996 0C6.26728 0 4.98599 1.24144 4.98599 2.82673V2.96567C3.15716 3.9922 1.96798 5.94133 1.96798 8.0074V11.6727C1.96798 12.6083 1.19019 14.5564 0.699698 15.565L0 17.0013H4.94796C4.94796 18.6546 6.29531 20 7.95096 20C8.7918 20 9.55156 19.6532 10.0971 19.0954L8.68167 17.682C8.49849 17.878 8.23925 18.0009 7.95096 18.0009C7.39941 18.0009 6.94996 17.5521 6.94996 17.0013H9.06206L10.954 17.0044V17.0013H16L15.2993 15.564L15.2983 15.566ZM3.12712 15.0042C3.52853 13.9917 3.96898 12.6563 3.96898 11.6747V8.0094C3.96898 6.54006 4.95697 5.1027 6.37138 4.51297L6.98699 4.25609V2.82773C6.98699 2.35594 7.40041 2.0001 7.94896 2.0001C8.49751 2.0001 8.99801 2.40492 8.99801 2.86671V4.26908L9.63162 4.51897C11.0631 5.08172 12.025 6.48509 12.025 8.0094V11.6747C12.025 12.6573 12.4665 13.9927 12.8679 15.0042H3.12612H3.12712Z" fill="#16131B"/>
</svg>
