<svg width="24" height="24" viewBox="0 0 24 24" fill="none" xmlns="http://www.w3.org/2000/svg">
<path d="M19.2983 17.566C18.8068 16.5595 18.028 14.6123 18.028 13.6737V10.0084C18.028 7.90335 16.8358 5.95122 15.001 4.95367V4.86571C15.001 3.28542 13.6326 2 11.95 2C10.2673 2 8.98599 3.24144 8.98599 4.82673V4.96567C7.15716 5.9922 5.96798 7.94133 5.96798 10.0074V13.6727C5.96798 14.6083 5.19019 16.5564 4.6997 17.565L4 19.0013H8.94796C8.94796 20.6546 10.2953 22 11.951 22C12.7918 22 13.5516 21.6532 14.0971 21.0954L12.6817 19.682C12.4985 19.878 12.2393 20.0009 11.951 20.0009C11.3994 20.0009 10.95 19.5521 10.95 19.0013H13.0621L14.954 19.0044V19.0013H20L19.2993 17.564L19.2983 17.566ZM7.12712 17.0042C7.52853 15.9917 7.96898 14.6563 7.96898 13.6747V10.0094C7.96898 8.54006 8.95697 7.1027 10.3714 6.51297L10.987 6.25609V4.82773C10.987 4.35594 11.4004 4.0001 11.949 4.0001C12.4975 4.0001 12.998 4.40492 12.998 4.86671V6.26908L13.6316 6.51897C15.0631 7.08172 16.025 8.48509 16.025 10.0094V13.6747C16.025 14.6573 16.4665 15.9927 16.8679 17.0042H7.12612H7.12712Z" fill="#16131B"/>
<path d="M17.0006 11.0013C18.6579 11.0013 20.0013 9.65785 20.0013 8.00064C20.0013 6.34343 18.6579 5 17.0006 5C15.3434 5 14 6.34343 14 8.00064C14 9.65785 15.3434 11.0013 17.0006 11.0013Z" fill="#6A00EF"/>
</svg>
