<svg width="24" height="22" viewBox="0 0 24 22" fill="none" xmlns="http://www.w3.org/2000/svg">
<path d="M16.8529 18.752L16.2129 13.628C16.1222 12.9022 15.7695 12.2346 15.221 11.7506C14.6726 11.2667 13.9663 10.9997 13.2349 11H11.0309C10.2998 11.0002 9.59395 11.2674 9.04596 11.7513C8.49796 12.2352 8.14553 12.9026 8.05487 13.628L7.41387 18.752C7.37869 19.0335 7.40381 19.3193 7.48755 19.5903C7.57129 19.8614 7.71174 20.1116 7.89958 20.3242C8.08741 20.5368 8.31833 20.707 8.577 20.8235C8.83567 20.94 9.11617 21.0002 9.39987 21H14.8679C15.1515 21.0001 15.4319 20.9398 15.6904 20.8232C15.949 20.7066 16.1798 20.5364 16.3675 20.3238C16.5552 20.1112 16.6956 19.8611 16.7793 19.5901C16.863 19.3191 16.888 19.0334 16.8529 18.752V18.752Z" stroke="#16131B" stroke-width="2" stroke-linecap="round" stroke-linejoin="round"/>
<path d="M12.1338 7C13.7906 7 15.1338 5.65685 15.1338 4C15.1338 2.34315 13.7906 1 12.1338 1C10.4769 1 9.13379 2.34315 9.13379 4C9.13379 5.65685 10.4769 7 12.1338 7Z" stroke="#16131B" stroke-width="2"/>
<path d="M4.13379 10C5.23836 10 6.13379 9.10457 6.13379 8C6.13379 6.89543 5.23836 6 4.13379 6C3.02922 6 2.13379 6.89543 2.13379 8C2.13379 9.10457 3.02922 10 4.13379 10Z" stroke="#16131B" stroke-width="2"/>
<path d="M20.1338 10C21.2384 10 22.1338 9.10457 22.1338 8C22.1338 6.89543 21.2384 6 20.1338 6C19.0292 6 18.1338 6.89543 18.1338 8C18.1338 9.10457 19.0292 10 20.1338 10Z" stroke="#16131B" stroke-width="2"/>
<path d="M4.13339 13H3.82739C3.35395 12.9999 2.89584 13.1678 2.53456 13.4738C2.17329 13.7798 1.93227 14.204 1.85439 14.671L1.52139 16.671C1.4736 16.9575 1.48881 17.2511 1.56596 17.5311C1.6431 17.8112 1.78034 18.0711 1.96811 18.2928C2.15589 18.5144 2.3897 18.6925 2.65328 18.8146C2.91686 18.9368 3.20388 19 3.49439 19H7.13339" stroke="#16131B" stroke-width="2" stroke-linecap="round" stroke-linejoin="round"/>
<path d="M20.1338 13H20.4398C20.9132 12.9999 21.3713 13.1678 21.7326 13.4738C22.0939 13.7798 22.3349 14.204 22.4128 14.671L22.7458 16.671C22.7936 16.9575 22.7784 17.2511 22.7012 17.5311C22.6241 17.8112 22.4868 18.0711 22.2991 18.2928C22.1113 18.5144 21.8775 18.6925 21.6139 18.8146C21.3503 18.9368 21.0633 19 20.7728 19H17.1338" stroke="#16131B" stroke-width="2" stroke-linecap="round" stroke-linejoin="round"/>
</svg>
