<svg width="24" height="24" viewBox="0 0 24 24" fill="none" xmlns="http://www.w3.org/2000/svg">
<path fill-rule="evenodd" clip-rule="evenodd" d="M13.9075 20.3837C16.1326 21.4786 18.3754 22.0172 20.6358 21.9996C20.8477 21.9996 21.0817 21.9863 21.3378 21.9598C21.5938 21.9334 21.8102 21.9025 21.9868 21.8671V15.5626L16.7154 14.3441L15.1267 15.9453L15.9995 17.9983L17.2981 16.5957L19.9471 17.1785V19.9069C19.1524 19.8539 18.3533 19.7303 17.5498 19.5361C16.7463 19.3418 16.0001 19.0769 15.3114 18.7414L15.3123 18.7405L13.3781 17.7078L13.3777 17.7083C11.9826 16.9136 10.6934 15.9335 9.5102 14.7679C8.32701 13.6024 7.27626 12.2514 6.35795 10.715L9.64265 7.48333L8.45062 2H2.14612C2.1108 2.1766 2.0799 2.38851 2.05341 2.63575C2.02692 2.88298 2.01367 3.12139 2.01367 3.35097C2.01367 5.6114 2.56112 7.8586 3.65602 10.0925C4.75092 12.3265 6.17694 14.3265 7.93408 16.0924C9.69122 17.8584 11.6823 19.2888 13.9075 20.3837ZM7.39104 6.82109L5.32486 8.86078C4.88337 7.85418 4.56991 6.96678 4.38448 6.19859C4.19906 5.43039 4.10634 4.71076 4.10634 4.03969H6.78178L7.39104 6.82109Z" fill="#16131B"/>
</svg>
