<svg width="55" height="55" viewBox="0 0 55 55" fill="none" xmlns="http://www.w3.org/2000/svg">
<path d="M33.2712 26.1411L33.2712 26.1411L23.318 19.5056C22.631 19.0476 21.7108 19.5401 21.7108 20.3657V33.6367C21.7108 34.4624 22.631 34.9548 23.318 34.4968L22.7764 33.6845L23.318 34.4968L33.2712 27.8613L33.2712 27.8613C33.885 27.4521 33.885 26.5503 33.2712 26.1411Z" stroke="#E1D6FF" stroke-width="1.96902"/>
<path d="M3.37332 27.0028C3.37332 39.2748 12.729 49.3617 24.697 50.5201C24.9678 50.5463 25.1723 50.7827 25.1515 51.0539L25.076 52.0356C25.0551 52.3065 24.8173 52.5096 24.5469 52.4839C11.5615 51.2485 1.4043 40.3118 1.4043 27.0028C1.4043 13.0309 12.5986 1.67352 26.5075 1.41024C26.7794 1.4051 27.0016 1.62596 27.0016 1.89783V2.88234C27.0016 3.1542 26.7794 3.37408 26.5076 3.37965C13.6861 3.64257 3.37332 14.1184 3.37332 27.0028Z" fill="#8EFFE4"/>
<path d="M27.0016 52.1074C27.0016 52.3793 27.2238 52.6002 27.4956 52.595C41.4046 52.3317 52.5988 40.9744 52.5988 27.0024C52.5988 13.6934 42.4416 2.75679 29.4562 1.52135C29.1858 1.49562 28.948 1.69877 28.9272 1.96963L28.8516 2.95134C28.8308 3.22261 29.0353 3.45894 29.3061 3.48515C41.2741 4.6436 50.6298 14.7305 50.6298 27.0024C50.6298 39.8869 40.317 50.3627 27.4955 50.6256C27.2237 50.6312 27.0016 50.8511 27.0016 51.1229V52.1074Z" fill="#E1D6FF"/>
</svg>
