<svg width="20" height="20" viewBox="0 0 20 20" fill="none" xmlns="http://www.w3.org/2000/svg">
<path fill-rule="evenodd" clip-rule="evenodd" d="M10 18C5.58172 18 2 14.4183 2 10C2 5.58172 5.58172 2 10 2C14.4183 2 18 5.58172 18 10C18 14.4183 14.4183 18 10 18ZM0 10C0 4.47715 4.47715 0 10 0C15.5228 0 20 4.47715 20 10C20 15.5228 15.5228 20 10 20C4.47715 20 0 15.5228 0 10ZM8.24947 9.7815L8.31623 12.5353H10.2022L10.2523 11.2001C11.02 11.189 11.6931 11.0611 12.2717 10.8163C12.8614 10.5715 13.3232 10.1987 13.657 9.69805C14.0019 9.19735 14.1744 8.56314 14.1744 7.79541C14.1744 7.04993 14.0075 6.42128 13.6737 5.90945C13.351 5.38651 12.9004 4.98595 12.3218 4.70779C11.7543 4.42962 11.0979 4.29054 10.3524 4.29054C9.55128 4.29054 8.86143 4.44075 8.28285 4.74116C7.71539 5.04158 7.28146 5.45327 6.98104 5.97621C6.68062 6.49916 6.53598 7.09443 6.5471 7.76203H8.56658C8.56658 7.23908 8.72235 6.8274 9.03389 6.52698C9.34544 6.21544 9.77937 6.05966 10.3357 6.05966C10.8698 6.05966 11.2981 6.21544 11.6208 6.52698C11.9435 6.8274 12.1048 7.24464 12.1048 7.77872C12.1048 8.33505 11.9657 8.75786 11.6876 9.04715C11.4094 9.33644 11.0367 9.53115 10.5694 9.63129C10.102 9.73143 9.58466 9.7815 9.0172 9.7815H8.24947ZM8.29954 15.9234C8.55545 16.1681 8.87812 16.2905 9.26755 16.2905C9.65698 16.2905 9.97409 16.1681 10.2189 15.9234C10.4637 15.6786 10.586 15.3837 10.586 15.0388C10.586 14.6828 10.4637 14.3823 10.2189 14.1375C9.97409 13.8928 9.65698 13.7704 9.26755 13.7704C8.87812 13.7704 8.55545 13.8928 8.29954 14.1375C8.05475 14.3823 7.93236 14.6828 7.93236 15.0388C7.93236 15.3837 8.05475 15.6786 8.29954 15.9234Z" fill="#16131B"/>
</svg>
