<svg width="20" height="20" viewBox="0 0 20 20" fill="none" xmlns="http://www.w3.org/2000/svg">
<circle cx="10.1449" cy="4.34783" r="3.34783" stroke="#16131B" stroke-width="2"/>
<mask id="path-2-inside-1_1179_7182" fill="white">
<path fill-rule="evenodd" clip-rule="evenodd" d="M2.82988 12.4918C1.01794 14.3037 0 16.7612 0 19.3237H1.64129C1.64129 17.1965 2.48631 15.1565 3.99045 13.6523C5.49459 12.1482 7.53465 11.3032 9.66183 11.3032C10.5483 11.3032 11.4196 11.4499 12.2433 11.7299L14.0954 10.7391C12.7372 10.0377 11.2189 9.66187 9.66183 9.66187C7.09936 9.66187 4.64183 10.6798 2.82988 12.4918Z"/>
</mask>
<path fill-rule="evenodd" clip-rule="evenodd" d="M2.82988 12.4918C1.01794 14.3037 0 16.7612 0 19.3237H1.64129C1.64129 17.1965 2.48631 15.1565 3.99045 13.6523C5.49459 12.1482 7.53465 11.3032 9.66183 11.3032C10.5483 11.3032 11.4196 11.4499 12.2433 11.7299L14.0954 10.7391C12.7372 10.0377 11.2189 9.66187 9.66183 9.66187C7.09936 9.66187 4.64183 10.6798 2.82988 12.4918Z" fill="white"/>
<path d="M0 19.3237H-1V20.3237H0V19.3237ZM2.82988 12.4918L2.12278 11.7846L2.82988 12.4918ZM1.64129 19.3237V20.3237H2.64129L2.64129 19.3237H1.64129ZM3.99045 13.6523L4.69756 14.3594L3.99045 13.6523ZM9.66183 11.3032V10.3032V11.3032ZM12.2433 11.7299L11.9214 12.6767L12.3323 12.8164L12.7149 12.6117L12.2433 11.7299ZM14.0954 10.7391L14.5671 11.6209L16.2446 10.7236L14.5543 9.85063L14.0954 10.7391ZM1 19.3237C1 17.0264 1.91258 14.8233 3.53699 13.1989L2.12278 11.7846C0.123296 13.7841 -1 16.496 -1 19.3237H1ZM1.64129 18.3237H0V20.3237H1.64129V18.3237ZM3.28334 12.9452C1.59166 14.6369 0.641286 16.9313 0.641286 19.3237H2.64129C2.64129 17.4617 3.38095 15.676 4.69756 14.3594L3.28334 12.9452ZM9.66183 10.3032C7.26943 10.3032 4.97502 11.2535 3.28334 12.9452L4.69756 14.3594C6.01416 13.0428 7.79987 12.3032 9.66183 12.3032V10.3032ZM12.5651 10.7831C11.6387 10.4682 10.6587 10.3032 9.66183 10.3032V12.3032C10.4378 12.3032 11.2004 12.4316 11.9214 12.6767L12.5651 10.7831ZM13.6237 9.85738L11.7716 10.8481L12.7149 12.6117L14.5671 11.6209L13.6237 9.85738ZM9.66183 10.6619C11.0577 10.6619 12.4188 10.9988 13.6366 11.6277L14.5543 9.85063C13.0555 9.07663 11.38 8.66187 9.66183 8.66187V10.6619ZM3.53699 13.1989C5.1614 11.5745 7.36457 10.6619 9.66183 10.6619V8.66187C6.83414 8.66187 4.12226 9.78516 2.12278 11.7846L3.53699 13.1989Z" fill="#16131B" mask="url(#path-2-inside-1_1179_7182)"/>
<circle cx="15.7971" cy="15.7971" r="3.4529" stroke="#16131B" stroke-width="1.5"/>
<path d="M13.5266 15.942H17.8744" stroke="#16131B"/>
</svg>
