<svg width="20" height="21" viewBox="0 0 20 21" fill="none" xmlns="http://www.w3.org/2000/svg">
<path fill-rule="evenodd" clip-rule="evenodd" d="M10 18.5703C5.58172 18.5703 2 14.9886 2 10.5703C2 6.15203 5.58172 2.57031 10 2.57031C14.4183 2.57031 18 6.15203 18 10.5703C18 14.9886 14.4183 18.5703 10 18.5703ZM0 10.5703C0 5.04747 4.47715 0.570312 10 0.570312C15.5228 0.570312 20 5.04747 20 10.5703C20 16.0932 15.5228 20.5703 10 20.5703C4.47715 20.5703 0 16.0932 0 10.5703ZM4.1157 9.29203L4 9.12531H16L14.2975 12.0153H5.70248L4.1157 9.29203Z" fill="#16131B"/>
</svg>
