<svg width="20" height="20" viewBox="0 0 20 20" fill="none" xmlns="http://www.w3.org/2000/svg">
<path fill-rule="evenodd" clip-rule="evenodd" d="M0 7.56647C0 3.39428 3.39548 0 7.56916 0C11.7428 0 15.1383 3.39428 15.1383 7.56647C15.1383 11.7387 11.7428 15.1329 7.56916 15.1329C3.39548 15.1329 0 11.7387 0 7.56647ZM2.02655 7.56647C2.02655 10.6214 4.51312 13.1071 7.56916 13.1071C10.6252 13.1071 13.1118 10.6214 13.1118 7.56647C13.1118 4.51152 10.6262 2.02583 7.56916 2.02583C4.51211 2.02583 2.02655 4.51152 2.02655 7.56647Z" fill="#16131B"/>
<path d="M14.1858 15.6202V12.7546L20 18.5677L18.5672 20L14.1858 15.6202Z" fill="#16131B"/>
</svg>
