<svg width="22" height="22" viewBox="0 0 22 22" fill="none" xmlns="http://www.w3.org/2000/svg">
<path fill-rule="evenodd" clip-rule="evenodd" d="M18.3352 8.88784L18.3475 8.93054L18.3913 8.93781L21.0013 9.37281V12.6272L18.3913 13.0622L18.3475 13.0695L18.3352 13.1121C18.1773 13.6616 17.9578 14.1908 17.6797 14.6924L17.6582 14.7313L17.684 14.7675L19.2226 16.9214L16.9214 19.2226L14.7674 17.684L14.7313 17.6582L14.6924 17.6798C14.1907 17.9579 13.6616 18.1774 13.1121 18.3353L13.0694 18.3475L13.0621 18.3913L12.6272 21.0013H9.3728L8.9378 18.3913L8.93052 18.3475L8.88783 18.3353C8.33829 18.1774 7.80931 17.9579 7.30754 17.6798L7.26869 17.6582L7.23251 17.684L5.07856 19.2226L2.77738 16.9214L4.31592 14.7675L4.34175 14.7313L4.32021 14.6924C4.04211 14.1907 3.82266 13.6616 3.66472 13.1121L3.65246 13.0695L3.60865 13.0622L0.998657 12.6272V9.37281L3.60865 8.93781L3.65246 8.93049L3.66473 8.88784C3.82262 8.33835 4.04211 7.80923 4.32021 7.30755L4.34176 7.2687L4.31592 7.23253L2.77738 5.07855L5.07856 2.77738L7.23251 4.31593L7.26869 4.34176L7.30754 4.32021C7.80926 4.04211 8.33834 3.82262 8.88783 3.66472L8.93052 3.65246L8.9378 3.60865L9.3728 0.998657H12.6272L13.0622 3.60865L13.0695 3.65246L13.1121 3.66472C13.6616 3.82262 14.1907 4.04211 14.6924 4.32021L14.7313 4.34176L14.7674 4.31593L16.9214 2.77738L19.2226 5.07855L17.684 7.23253L17.6582 7.2687L17.6798 7.30755C17.9579 7.80927 18.1773 8.33835 18.3352 8.88784ZM17.8166 16.8507L17.8588 16.8086L17.8241 16.76L16.407 14.776C16.4247 14.7468 16.4481 14.7104 16.4761 14.6668C16.6878 14.3369 17.1615 13.5985 17.4176 12.4926L17.4963 12.1528L19.8984 11.7524L19.9571 11.7426V11.683V10.317V10.2574L19.8984 10.2476L17.4945 9.8469C17.4862 9.81307 17.4767 9.76985 17.4655 9.71838C17.3816 9.33471 17.1957 8.48484 16.5927 7.51851L16.408 7.22253L17.8241 5.23994L17.8588 5.19143L17.8166 5.14927L16.8507 4.18333L16.8085 4.14118L16.76 4.17583L14.7774 5.59195L14.4815 5.40727C13.5097 4.80091 12.652 4.61461 12.2743 4.53257L12.2743 4.53256C12.2256 4.52199 12.1849 4.51316 12.153 4.50538L11.7524 2.10161L11.7426 2.0428H11.683H10.317H10.2573L10.2475 2.10161L9.84717 4.50372L9.50732 4.58241C8.39375 4.84022 7.6457 5.32204 7.32377 5.5294L7.32082 5.53128C7.28225 5.5561 7.24987 5.57693 7.22383 5.59288L5.23995 4.17583L5.19143 4.14118L5.14927 4.18333L4.18334 5.14927L4.14117 5.19143L4.17583 5.23994L5.59297 7.22394C5.57613 7.25171 5.55381 7.28654 5.52765 7.32736L5.5239 7.33322C5.31222 7.66312 4.83847 8.40151 4.58237 9.50738L4.50368 9.84722L2.10161 10.2476L2.0428 10.2574V10.317V11.683V11.7426L2.10161 11.7524L4.50544 12.1531C4.51377 12.1869 4.52319 12.2299 4.53444 12.2814C4.61832 12.665 4.80419 13.515 5.40725 14.4815L5.59193 14.7775L4.17583 16.76L4.14117 16.8086L4.18334 16.8507L5.14927 17.8166L5.19143 17.8588L5.23995 17.8241L7.22393 16.407C7.25297 16.4246 7.28915 16.4478 7.33245 16.4756L7.3333 16.4762L7.33338 16.4762C7.66346 16.688 8.40187 17.1616 9.50732 17.4176L9.84717 17.4963L10.2475 19.8984L10.2573 19.9572H10.317H11.683H11.7426L11.7524 19.8984L12.153 17.4945C12.1869 17.4862 12.2299 17.4767 12.2814 17.4655C12.665 17.3816 13.5149 17.1958 14.4815 16.5927L14.7774 16.408L16.76 17.8241L16.8085 17.8588L16.8507 17.8166L17.8166 16.8507ZM11.0577 13.2522C11.9807 13.2522 12.7739 12.697 13.1218 11.9024L14.4943 11.9024C14.095 13.4272 12.7077 14.5522 11.0577 14.5522C9.09588 14.5522 7.50549 12.9618 7.50549 11C7.50549 9.03814 9.09588 7.44775 11.0577 7.44775C12.547 7.44775 13.8223 8.36427 14.3502 9.66405L13.293 10.7223C13.1562 9.60944 12.2076 8.74775 11.0577 8.74775C9.81385 8.74775 8.80549 9.75611 8.80549 11C8.80549 12.2438 9.81385 13.2522 11.0577 13.2522Z" fill='#16131B'/>
</svg>
