<svg width="20" height="20" viewBox="0 0 20 20" fill="none" xmlns="http://www.w3.org/2000/svg">
<path d="M17.5065 5.00032C18.8835 5.00032 20 3.8808 20 2.50016C20 1.11952 18.8835 0 17.5065 0C16.1295 0 15.013 1.11952 15.013 2.50016C15.013 2.55018 15.015 2.5992 15.018 2.64923L6.03073 7.24136V9.4874L15.924 4.43206C16.354 4.78722 16.9058 5.00032 17.5065 5.00032Z" fill="#16131B"/>
<path d="M2.49351 7.49648C1.11654 7.49648 0 8.616 0 9.99663C0 11.3773 1.11654 12.4968 2.49351 12.4968C3.15606 12.4968 3.75673 12.2377 4.20375 11.8155L14.0132 16.8358V14.5898L4.98603 9.96963C4.97106 8.60199 3.86151 7.49748 2.49351 7.49748V7.49648Z" fill="#16131B"/>
<path d="M19.9441 16.9804C20.23 18.3311 19.3696 19.6584 18.0225 19.945C16.6754 20.2316 15.3516 19.369 15.0657 18.0183C14.7799 16.6676 15.6402 15.3402 16.9873 15.0536C18.3345 14.767 19.6583 15.6296 19.9441 16.9804Z" fill="#16131B"/>
</svg>
