<svg width="20" height="20" viewBox="0 0 20 20" fill="none" xmlns="http://www.w3.org/2000/svg">
<path fill-rule="evenodd" clip-rule="evenodd" d="M10.0176 15.0165C7.61692 15.0165 5.30908 14.1585 3.34269 12.5352L3.34265 12.5352L3.33251 12.5268C2.60284 11.9231 2.0467 11.32 1.6665 10.8575L1.67746 10.8685V8.56683L1.67623 8.56806C2.05362 8.11024 2.60164 7.51723 3.31799 6.92264L3.31809 6.92256L3.33251 6.9106C5.30111 5.28185 7.61277 4.4209 10.0176 4.4209C12.423 4.4209 14.729 5.28231 16.6864 6.91183C16.7121 6.93316 16.7375 6.95449 16.7626 6.97581L16.7627 6.97586C17.4458 7.55421 17.9697 8.12743 18.3331 8.5725V10.8649C17.9654 11.3153 17.4333 11.8969 16.7382 12.4822L16.7381 12.4823L16.6864 12.5256C14.729 14.1551 12.423 15.0165 10.0176 15.0165ZM2.74182 10.1169C3.07908 10.4821 3.56572 10.9353 4.21073 11.4653L4.21077 11.4654L4.21702 11.4705C5.9898 12.9264 7.87294 13.5975 10.0176 13.5975C12.1388 13.5975 14.0995 12.9397 15.8462 11.5165L15.8463 11.5164L15.9022 11.4705C16.5681 10.9205 16.9565 10.4534 17.2347 10.0815C17.3007 9.99317 17.3605 9.91024 17.4163 9.83283L17.4165 9.83264C17.4477 9.78925 17.4778 9.74759 17.507 9.7077C17.4266 9.5978 17.3398 9.4797 17.2381 9.35121C16.9598 8.99938 16.5708 8.56965 15.9022 8.01725C15.8753 7.995 15.8483 7.97293 15.8213 7.95106L15.8212 7.95101C14.0806 6.54255 12.1287 5.90891 10.0176 5.90891C7.88028 5.90891 6.00295 6.55694 4.23559 8.00203L4.23555 8.00207L4.21702 8.01725C3.56705 8.55109 3.07738 8.97068 2.73888 9.31646C2.59995 9.45837 2.48649 9.58785 2.39785 9.7077C2.48709 9.82833 2.60153 9.965 2.74182 10.1169ZM9.99936 11.4369C9.58568 11.4369 9.20492 11.296 8.90247 11.0595L8.90252 11.0595C8.8564 11.0234 8.81216 10.9853 8.76995 10.945C8.74852 10.9246 8.72761 10.9037 8.70724 10.8822C8.60724 10.777 8.52026 10.6597 8.4484 10.5328C8.33308 10.3291 8.259 10.1047 8.2304 9.8724C8.22135 9.79894 8.21691 9.72515 8.21704 9.65144C8.21733 9.49207 8.23899 9.33311 8.2817 9.17887C8.34418 8.95331 8.45047 8.74226 8.59451 8.55777C8.73855 8.37328 8.91751 8.21897 9.12119 8.10365C9.32486 7.98833 9.54926 7.91425 9.78156 7.88565C9.85502 7.8766 9.92881 7.87216 10.0025 7.87229C10.1619 7.87258 10.3209 7.89424 10.4751 7.93695C10.7007 7.99943 10.9117 8.10572 11.0962 8.24976L11.0962 8.24969C11.5135 8.57591 11.7817 9.08394 11.7817 9.65461C11.7817 10.639 10.9837 11.4369 9.99936 11.4369ZM12.9492 9.65461C12.9492 8.02718 11.6314 6.70757 10.0046 6.70474L9.99936 6.70474C8.37193 6.70474 7.05232 8.02261 7.04949 9.64937L7.04949 9.65461C7.04949 11.2838 8.37019 12.6045 9.99936 12.6045C11.6285 12.6045 12.9492 11.2838 12.9492 9.65461Z" fill='#16131B'/>
</svg>
