<svg width="92" height="90" viewBox="0 0 92 90" fill="none" xmlns="http://www.w3.org/2000/svg">
<rect width="91.5618" height="91.5618" rx="20" fill="#6B7683"/>
<g clip-path="url(#clip0_1913_395)">
<path d="M59.4277 23H36.0974C35.9059 23 35.7492 23.1808 35.7492 23.4018V26.2143C35.7492 26.4353 35.9059 26.6161 36.0974 26.6161H57.6867V61.1696C57.6867 61.3906 57.8434 61.5714 58.0349 61.5714H60.4724C60.6639 61.5714 60.8206 61.3906 60.8206 61.1696V24.6071C60.8206 23.7182 60.1982 23 59.4277 23ZM53.8563 29.4286H31.5706C30.8002 29.4286 30.1777 30.1468 30.1777 31.0357V57.6892C30.1777 58.1161 30.3257 58.5229 30.5869 58.8242L38.1301 67.5279C38.2258 67.6384 38.3347 67.7288 38.4522 67.8041V67.8996H38.635C38.7873 67.9648 38.9484 68 39.1138 68H53.8563C54.6267 68 55.2492 67.2818 55.2492 66.3929V31.0357C55.2492 30.1468 54.6267 29.4286 53.8563 29.4286ZM38.4478 62.7868L34.7002 58.4576H38.4478V62.7868ZM52.1152 64.3839H41.2335V57.2522C41.2335 56.1423 40.4544 55.2433 39.4925 55.2433H33.3117V33.0446H52.1152V64.3839Z" fill="white"/>
</g>
<defs>
<clipPath id="clip0_1913_395">
<rect width="39" height="45" fill="white" transform="translate(26 23)"/>
</clipPath>
</defs>
</svg>
