<svg width="92" height="92" viewBox="0 0 92 92" fill="none" xmlns="http://www.w3.org/2000/svg">
<rect x="0.5" y="0.5" width="90.5618" height="90.5618" rx="19.5" fill="white" stroke="#C4CFE3"/>
<path d="M22.9499 66.1963H31.4326V45.5955L19.3145 36.5068V62.5609C19.3145 64.5725 20.9443 66.1963 22.9499 66.1963Z" fill="#4285F4"/>
<path d="M60.5156 66.1963H68.9983C71.01 66.1963 72.6338 64.5664 72.6338 62.5609V36.5068L60.5156 45.5955" fill="#34A853"/>
<path d="M60.5156 29.8421V45.5957L72.6338 36.507V31.6598C72.6338 27.1639 67.5017 24.6009 63.9087 27.2972" fill="#FBBC04"/>
<path d="M31.4336 45.5954V29.8418L45.9754 40.7481L60.5172 29.8418V45.5954L45.9754 56.5018" fill="#EA4335"/>
<path d="M19.3145 31.6598V36.507L31.4326 45.5957V29.8421L28.0395 27.2972C24.4404 24.6009 19.3145 27.1639 19.3145 31.6598Z" fill="#C5221F"/>
</svg>
