<svg width="92" height="92" viewBox="0 0 92 92" fill="none" xmlns="http://www.w3.org/2000/svg">
<rect width="91.5618" height="91.5618" rx="20" fill="#FF4500"/>
<path d="M68.671 46.2006C68.6779 46.6673 68.6194 47.1331 68.4957 47.5836C68.372 48.0341 68.1847 48.4659 67.9389 48.8644C67.6941 49.263 67.3934 49.6258 67.0462 49.9417C66.6991 50.2577 66.309 50.5234 65.8872 50.7312C65.8966 50.8555 65.9043 50.9807 65.9086 51.1059C65.919 51.3556 65.919 51.6056 65.9086 51.8553C65.9043 51.9805 65.8966 52.1057 65.8872 52.23C65.8872 59.8605 56.917 66.0603 45.8505 66.0603C34.7839 66.0603 25.8138 59.8605 25.8138 52.23C25.8043 52.1057 25.7966 51.9805 25.7923 51.8553C25.782 51.6056 25.782 51.3556 25.7923 51.1059C25.7966 50.9807 25.8043 50.8555 25.8138 50.7312C25.1528 50.4301 24.5658 49.9902 24.0933 49.442C23.6208 48.8938 23.2741 48.2504 23.0772 47.5564C22.8806 46.862 22.8388 46.1335 22.9545 45.4215C23.0702 44.7095 23.3408 44.0309 23.7474 43.4328C24.1537 42.8348 24.6863 42.3316 25.3084 41.9581C25.9305 41.5846 26.6272 41.3497 27.35 41.2697C28.073 41.1894 28.8049 41.2659 29.4951 41.4938C30.1853 41.7217 30.8172 42.0957 31.3471 42.5897C32.3307 41.9289 33.3613 41.3395 34.4308 40.826C35.5005 40.3134 36.6063 39.8773 37.7396 39.523C38.8729 39.1688 40.0311 38.8971 41.2039 38.7089C42.3767 38.5207 43.5624 38.4176 44.7507 38.3998L47.2939 26.5793C47.3223 26.4422 47.3781 26.3128 47.458 26.1969C47.5371 26.082 47.6393 25.9832 47.7571 25.9074C47.8756 25.8316 48.0079 25.7796 48.1471 25.7541C48.2855 25.7294 48.4281 25.7319 48.5656 25.7618L56.9858 27.4309C57.8355 25.984 59.6193 25.3641 61.1942 25.967C62.7691 26.5699 63.6695 28.2178 63.3173 29.8546C62.9659 31.4914 61.4657 32.6326 59.7799 32.5466C58.0933 32.4606 56.7194 31.1729 56.539 29.5089L49.1842 27.976L46.9503 38.6042C48.1239 38.6288 49.295 38.7379 50.4532 38.9295C52.7726 39.3127 55.0241 40.0257 57.1379 41.0466C58.1936 41.5559 59.211 42.1399 60.182 42.7941C60.8802 42.1297 61.7576 41.6798 62.7081 41.4988C63.6586 41.3172 64.6419 41.4121 65.5392 41.7722C66.4366 42.1321 67.2097 42.7416 67.7654 43.5274C68.3212 44.3131 68.6357 45.2416 68.671 46.2006ZM34.5639 50.9109C34.7375 51.3239 34.9901 51.6995 35.3097 52.0154C35.6285 52.3322 36.0074 52.5826 36.4241 52.7546C36.8412 52.9256 37.2882 53.0136 37.7396 53.0135C39.1298 53.0135 40.3825 52.1832 40.9152 50.9109C41.447 49.6377 41.1523 48.1729 40.1694 47.1987C39.1865 46.2244 37.7086 45.9323 36.4241 46.4595C35.1405 46.9875 34.3027 48.2291 34.3027 49.6071C34.3027 50.0542 34.3912 50.497 34.5639 50.9109ZM54.2484 59.0881C54.4245 58.9178 54.525 58.6853 54.5285 58.4417C54.5319 58.1973 54.4365 57.9623 54.2647 57.7877C54.0928 57.6131 53.8583 57.5135 53.6125 57.5101C53.3659 57.5067 53.1288 57.6012 52.9303 57.7485C52.4135 58.1159 51.8663 58.4393 51.2944 58.7151C50.7225 58.9911 50.1281 59.2187 49.5176 59.3955C48.9075 59.5718 48.2829 59.697 47.6514 59.7694C47.019 59.8418 46.3823 59.8605 45.7474 59.8265C45.1133 59.8546 44.4775 59.829 43.8477 59.7507C43.2177 59.6731 42.5957 59.542 41.9883 59.3589C41.38 59.1767 40.7897 58.9433 40.2218 58.6623C39.6539 58.3813 39.1109 58.0525 38.5988 57.6804C38.4209 57.5356 38.1949 57.4615 37.9647 57.4726C37.7344 57.4837 37.517 57.5799 37.3538 57.7409C37.1914 57.9027 37.0943 58.1181 37.0831 58.3464C37.072 58.5746 37.1467 58.7986 37.2928 58.9748C37.8968 59.4262 38.5386 59.8248 39.2114 60.1671C39.8841 60.5095 40.5861 60.7931 41.3078 61.0162C42.0296 61.2393 42.7694 61.4003 43.5194 61.4982C44.2695 61.5953 45.0265 61.6285 45.7817 61.5978C46.537 61.6285 47.2939 61.5953 48.044 61.4982C49.5464 61.3023 51.0036 60.8521 52.3521 60.1671C53.0248 59.8248 53.6667 59.4262 54.2707 58.9748L54.2484 59.0881ZM53.6177 53.286C54.0834 53.2912 54.5456 53.2017 54.9761 53.0246C55.4066 52.8466 55.7958 52.5843 56.1206 52.253C56.4453 51.9218 56.698 51.5283 56.8646 51.0965C57.0314 50.6653 57.1077 50.2048 57.0889 49.7433C57.0889 48.3654 56.2512 47.1237 54.9675 46.5957C53.683 46.0686 52.2052 46.3607 51.2222 47.3349C50.2393 48.3092 49.9446 49.774 50.4764 51.0471C51.0091 52.3195 52.2619 53.1498 53.6521 53.1498L53.6177 53.286Z" fill="white"/>
</svg>
