<svg width="20" height="20" viewBox="0 0 20 20" fill="none" xmlns="http://www.w3.org/2000/svg">
<path fill-rule="evenodd" clip-rule="evenodd" d="M10.7617 3.07692V0H9.22718V3.07692H10.7617ZM7.20636 3.62005L5.67183 0.954769L4.34263 1.724L5.87715 4.38928L7.20636 3.62005ZM4.39808 5.87215L1.73961 4.33369L0.972346 5.66631L3.63081 7.20477L4.39808 5.87215ZM3.08907 9.23077H0.0200195V10.7692H3.08907V9.23077ZM3.63081 12.7952L0.972346 14.3337L1.73961 15.6663L4.39808 14.1278L3.63081 12.7952ZM4.34263 18.276L5.67183 19.0452L7.20636 16.3799L5.87715 15.6107L4.34263 18.276ZM9.22718 16.9231V20H10.7617V16.9231H9.22718ZM12.305 14.8493C13.0031 15.1827 13.7747 15.3846 14.598 15.3846C17.5592 15.3846 19.9689 12.9688 19.9689 10C19.9689 7.03123 17.5592 4.61538 14.598 4.61538C13.7747 4.61538 13.0031 4.81728 12.305 5.15072C11.5857 4.80621 10.7979 4.61538 9.99444 4.61538C7.03326 4.61538 4.6236 7.03123 4.6236 10C4.6236 12.9688 7.03326 15.3846 9.99444 15.3846C10.7979 15.3846 11.5856 15.1938 12.305 14.8493ZM18.4343 10C18.4343 12.1242 16.7167 13.8462 14.598 13.8462C12.4793 13.8462 10.7617 12.1242 10.7617 10C10.7617 7.87585 12.4793 6.15385 14.598 6.15385C16.7167 6.15385 18.4343 7.87585 18.4343 10ZM9.22718 10C9.22718 8.54333 9.81244 7.22421 10.7533 6.25385C10.5032 6.20313 10.2518 6.15385 9.99444 6.15385C7.8792 6.15385 6.15812 7.87933 6.15812 10C6.15812 12.1207 7.8792 13.8462 9.99444 13.8462C10.2518 13.8462 10.5032 13.7969 10.7533 13.7462C9.81244 12.7758 9.22718 11.4567 9.22718 10Z" fill="#16131B"/>
</svg>
