<svg width="20" height="20" viewBox="0 0 20 20" fill="none" xmlns="http://www.w3.org/2000/svg">
<path d="M18 18H2V2H14V0H0V20H20V0H15L17 2H18V18Z" fill="#16131B"/>
<path d="M8.18594 14H10L7.46852 10.4713L9.82064 7H8.10908L6.52562 9.51847L4.91142 7H3.15886L5.48536 10.3899L3 14H4.70132L6.44363 11.3523L8.18594 14Z" fill="#16131B"/>
<path fill-rule="evenodd" clip-rule="evenodd" d="M16.2277 7.58413C15.7129 7.19471 14.8951 7 13.7743 7H11V14H12.8416V11.5103H13.6317C14.2653 11.5103 14.798 11.448 15.2297 11.3235C15.6614 11.1959 16.0059 11.0235 16.2634 10.8064C16.5248 10.5894 16.7129 10.342 16.8277 10.0643C16.9426 9.7834 17 9.48974 17 9.18331C17 8.50342 16.7426 7.97036 16.2277 7.58413ZM12.8416 8.21614H13.6792C14.1782 8.21614 14.5465 8.30073 14.7842 8.4699C15.0218 8.63589 15.1406 8.89124 15.1406 9.23598C15.1406 9.48176 15.0713 9.68285 14.9327 9.83926C14.7941 9.99567 14.598 10.1106 14.3446 10.184C14.0911 10.2574 13.7921 10.2941 13.4475 10.2941H12.8416V8.21614Z" fill="#16131B"/>
</svg>
