<svg width="9" height="18" viewBox="0 0 9 18" fill="none" xmlns="http://www.w3.org/2000/svg">
<path d="M7.72532 0.908335C8.00614 0.907787 8.27829 1.00559 8.49453 1.18477C8.61623 1.28567 8.71683 1.40958 8.79056 1.54942C8.8643 1.68925 8.90973 1.84226 8.92424 1.99968C8.93876 2.1571 8.92207 2.31584 8.87515 2.4668C8.82822 2.61776 8.75197 2.75798 8.65077 2.87943L3.26632 9.32155L8.45847 15.7757C8.55831 15.8986 8.63286 16.0401 8.67785 16.1919C8.72284 16.3438 8.73737 16.503 8.72062 16.6605C8.70387 16.818 8.65616 16.9706 8.58023 17.1096C8.5043 17.2486 8.40165 17.3712 8.27819 17.4703C8.15383 17.5798 8.0082 17.6623 7.85044 17.7128C7.69268 17.7632 7.52619 17.7805 7.36142 17.7636C7.19665 17.7467 7.03715 17.6959 6.89295 17.6144C6.74874 17.5329 6.62294 17.4225 6.52343 17.2901L0.718315 10.0787C0.541539 9.86368 0.444901 9.59392 0.444901 9.31554C0.444901 9.03715 0.541539 8.7674 0.718315 8.55234L6.72775 1.34102C6.84832 1.19557 7.00148 1.08059 7.17481 1.00541C7.34813 0.930237 7.53673 0.896977 7.72532 0.908335Z" fill="#807A87"/>
</svg>
