<svg width="9" height="18" viewBox="0 0 9 18" fill="none" xmlns="http://www.w3.org/2000/svg">
<path d="M1.27468 17.0917C0.993858 17.0922 0.721707 16.9944 0.505473 16.8152C0.383772 16.7143 0.283172 16.5904 0.209434 16.4506C0.135696 16.3107 0.0902686 16.1577 0.0757548 16.0003C0.061241 15.8429 0.0779256 15.6842 0.124853 15.5332C0.17178 15.3822 0.248026 15.242 0.349228 15.1206L5.73368 8.67845L0.541531 2.22432C0.441695 2.10138 0.367139 1.95992 0.322151 1.80808C0.277162 1.65623 0.262627 1.49699 0.27938 1.33951C0.296133 1.18203 0.343844 1.02941 0.419772 0.890429C0.4957 0.751447 0.598347 0.628841 0.721813 0.529658C0.846168 0.420242 0.991795 0.337712 1.14956 0.287245C1.30732 0.236779 1.47381 0.219468 1.63858 0.236396C1.80335 0.253325 1.96285 0.304128 2.10705 0.385618C2.25126 0.467108 2.37706 0.577526 2.47657 0.709941L8.28168 7.92126C8.45846 8.13632 8.5551 8.40608 8.5551 8.68446C8.5551 8.96285 8.45846 9.2326 8.28168 9.44766L2.27225 16.659C2.15168 16.8044 1.99852 16.9194 1.82519 16.9946C1.65187 17.0698 1.46326 17.103 1.27468 17.0917Z" fill="#807A87"/>
</svg>
