<svg width="15" height="14" viewBox="0 0 15 14" fill="none" xmlns="http://www.w3.org/2000/svg">
<path d="M7.792 13.3737C3.472 13.3737 0.864 10.7337 0.864 7.08566C0.864 2.86166 3.92 0.189658 8.416 0.189658C12.144 0.189658 14.992 2.17366 14.992 5.21366C14.992 8.46166 12.416 9.75766 9.344 9.78966L9.472 8.31766C9.136 9.08566 8.256 9.78966 7.12 9.78966C5.392 9.78966 4.32 8.57366 4.32 6.92566C4.32 4.98966 5.648 3.58166 7.552 3.58166C8.736 3.58166 9.504 4.30166 9.712 5.13366L9.84 3.72566H11.504L11.088 8.46166C12.592 8.14166 13.664 6.90966 13.664 5.27766C13.664 2.87766 11.408 1.29366 8.336 1.29366C4.688 1.29366 2.176 3.62966 2.176 7.02166C2.176 10.1577 4.32 12.1897 7.904 12.1897C9.84 12.1897 11.664 11.6937 13.024 10.6857L12.752 12.1417C11.584 12.9097 9.616 13.3737 7.792 13.3737ZM7.696 8.46166C8.464 8.46166 9.056 8.17366 9.472 7.70966L9.648 5.75766C9.328 5.29366 8.736 4.92566 7.952 4.92566C6.72 4.92566 5.968 5.72566 5.968 6.84566C5.968 7.78966 6.576 8.46166 7.696 8.46166Z" fill="#807A87"/>
</svg>
