<svg width="48" height="41" viewBox="0 0 48 41" fill="none" xmlns="http://www.w3.org/2000/svg">
<rect y="0.593658" width="48" height="40" rx="16" fill="#2E2836"/>
<path d="M23.792 26.3737C19.472 26.3737 16.864 23.7337 16.864 20.0857C16.864 15.8617 19.92 13.1897 24.416 13.1897C28.144 13.1897 30.992 15.1737 30.992 18.2137C30.992 21.4617 28.416 22.7577 25.344 22.7897L25.472 21.3177C25.136 22.0857 24.256 22.7897 23.12 22.7897C21.392 22.7897 20.32 21.5737 20.32 19.9257C20.32 17.9897 21.648 16.5817 23.552 16.5817C24.736 16.5817 25.504 17.3017 25.712 18.1337L25.84 16.7257H27.504L27.088 21.4617C28.592 21.1417 29.664 19.9097 29.664 18.2777C29.664 15.8777 27.408 14.2937 24.336 14.2937C20.688 14.2937 18.176 16.6297 18.176 20.0217C18.176 23.1577 20.32 25.1897 23.904 25.1897C25.84 25.1897 27.664 24.6937 29.024 23.6857L28.752 25.1417C27.584 25.9097 25.616 26.3737 23.792 26.3737ZM23.696 21.4617C24.464 21.4617 25.056 21.1737 25.472 20.7097L25.648 18.7577C25.328 18.2937 24.736 17.9257 23.952 17.9257C22.72 17.9257 21.968 18.7257 21.968 19.8457C21.968 20.7897 22.576 21.4617 23.696 21.4617Z" fill="#807A87"/>
</svg>
