<svg width="24" height="25" viewBox="0 0 24 25" fill="none" xmlns="http://www.w3.org/2000/svg">
<path d="M6.44784 8.15231C6.76219 5.32321 9.15349 3.18289 12 3.18289V3.18289C14.8465 3.18289 17.2378 5.32321 17.5522 8.15231L17.804 10.4185C17.8072 10.4474 17.8088 10.4619 17.8104 10.4762C17.9394 11.5998 18.3051 12.6834 18.8836 13.6554C18.8909 13.6677 18.8984 13.6802 18.9133 13.7051L19.4914 14.6685C20.0159 15.5428 20.2782 15.9799 20.2216 16.3387C20.1839 16.5775 20.061 16.7946 19.8757 16.9497C19.5971 17.1829 19.0873 17.1829 18.0678 17.1829H5.93223C4.91268 17.1829 4.40291 17.1829 4.12434 16.9497C3.93897 16.7946 3.81609 16.5775 3.77841 16.3387C3.72179 15.9799 3.98407 15.5428 4.50862 14.6685L5.08665 13.7051C5.10161 13.6802 5.10909 13.6677 5.11644 13.6554C5.69488 12.6834 6.06064 11.5998 6.18959 10.4762C6.19123 10.4619 6.19283 10.4474 6.19604 10.4185L6.44784 8.15231Z" stroke="#FFFCEE" stroke-width="2"/>
<path d="M8 17.1829C8 17.7082 8.10346 18.2283 8.30448 18.7136C8.5055 19.1989 8.80014 19.6399 9.17157 20.0113C9.54301 20.3828 9.98396 20.6774 10.4693 20.8784C10.9546 21.0794 11.4747 21.1829 12 21.1829C12.5253 21.1829 13.0454 21.0794 13.5307 20.8784C14.016 20.6774 14.457 20.3828 14.8284 20.0113C15.1999 19.6399 15.4945 19.1989 15.6955 18.7136C15.8965 18.2283 16 17.7082 16 17.1829" stroke="#FFFCEE" stroke-width="2" stroke-linecap="round"/>
</svg>
