<svg width="24" height="25" viewBox="0 0 24 25" fill="none" xmlns="http://www.w3.org/2000/svg">
<path d="M4 9.18289C4 6.35446 4 4.94025 4.87868 4.06157C5.75736 3.18289 7.17157 3.18289 10 3.18289H14C16.8284 3.18289 18.2426 3.18289 19.1213 4.06157C20 4.94025 20 6.35446 20 9.18289V16.0105C20 18.6938 20 20.0354 19.1557 20.4458C18.3114 20.8561 17.2565 20.0272 15.1465 18.3695L14.4713 17.8389C13.2849 16.9068 12.6917 16.4407 12 16.4407C11.3083 16.4407 10.7151 16.9068 9.52871 17.8389L8.85346 18.3695C6.74355 20.0272 5.68859 20.8561 4.84429 20.4458C4 20.0354 4 18.6938 4 16.0105V9.18289Z" stroke="#FFFCEE" stroke-width="2"/>
</svg>
