<svg width="30" height="31" viewBox="0 0 30 31" fill="none" xmlns="http://www.w3.org/2000/svg">
<g clip-path="url(#clip0_40_32)">
<path d="M15 0.333374C12.0333 0.333374 9.13319 1.21311 6.66645 2.86133C4.19972 4.50955 2.27713 6.85223 1.14181 9.59312C0.00649929 12.334 -0.290551 15.35 0.288228 18.2597C0.867006 21.1694 2.29562 23.8422 4.3934 25.94C6.49119 28.0378 9.16394 29.4664 12.0737 30.0452C14.9834 30.6239 17.9994 30.3269 20.7403 29.1916C23.4811 28.0563 25.8238 26.1337 27.472 23.6669C29.1203 21.2002 30 18.3001 30 15.3334C29.9957 11.3564 28.414 7.54364 25.6019 4.73152C22.7897 1.91941 18.9769 0.337675 15 0.333374V0.333374ZM26.1763 14.0834H21.8288C21.5453 10.827 20.5698 7.66867 18.9675 4.81962C20.9044 5.55212 22.6019 6.80426 23.8736 8.43851C25.1454 10.0728 25.9421 12.0259 26.1763 14.0834ZM12.1063 17.8334H17.8938C17.4016 20.4518 16.4198 22.9539 15 25.2084C13.58 22.954 12.5982 20.4519 12.1063 17.8334ZM11.9413 14.0834C12.2913 11.0131 13.3375 8.0632 15 5.45837C16.6627 8.06311 17.7089 11.013 18.0588 14.0834H11.9413ZM11.0325 4.81962C9.43021 7.66867 8.45472 10.827 8.17126 14.0834H3.82376C4.05794 12.0259 4.85465 10.0728 6.12637 8.43851C7.39809 6.80426 9.09563 5.55212 11.0325 4.81962ZM4.04001 17.8334H8.30126C8.72186 20.6473 9.64712 23.3621 11.0325 25.8471C9.29768 25.1897 7.75186 24.1143 6.53212 22.7164C5.31237 21.3185 4.45637 19.6413 4.04001 17.8334ZM18.9675 25.8471C20.3534 23.3623 21.2787 20.6474 21.6988 17.8334H25.96C25.5436 19.6413 24.6876 21.3185 23.4679 22.7164C22.2481 24.1143 20.7023 25.1897 18.9675 25.8471Z" fill="#FFFCEE"/>
</g>
<defs>
<clipPath id="clip0_40_32">
<rect width="30" height="30" fill="white" transform="translate(0 0.333374)"/>
</clipPath>
</defs>
</svg>
