<svg width="24" height="25" viewBox="0 0 24 25" fill="none" xmlns="http://www.w3.org/2000/svg">
<path d="M12 20.1829C9.52231 20.1829 7.46379 18.3797 7.06863 16.0139L5.09596 16.3435C5.6495 19.6573 8.52885 22.1829 12 22.1829V20.1829ZM16.9314 16.0139C16.5363 18.3797 14.4778 20.1829 12 20.1829V22.1829C15.4712 22.1829 18.3506 19.6573 18.9041 16.3435L16.9314 16.0139ZM17 14.1829H7.00004V16.1829H17V14.1829ZM18.9041 16.3435C19.1158 15.076 18.05 14.1829 17 14.1829V16.1829C17.0053 16.1829 16.9943 16.1854 16.9751 16.1652C16.9642 16.1537 16.9494 16.1332 16.9394 16.1023C16.9287 16.0694 16.9275 16.0373 16.9314 16.0139L18.9041 16.3435ZM7.06863 16.0139C7.07253 16.0373 7.07138 16.0694 7.06071 16.1023C7.05067 16.1332 7.0359 16.1537 7.02502 16.1652C7.00579 16.1854 6.99482 16.1829 7.00004 16.1829V14.1829C5.95003 14.1829 4.88424 15.076 5.09596 16.3435L7.06863 16.0139Z" fill="#FFFCEE"/>
<path d="M16.7577 11.5267L15.9653 12.1366L16.7577 11.5267ZM7.24227 11.5267L6.4498 10.9168L7.24227 11.5267ZM7 15.1829C7 14.0351 7.38554 12.9802 8.03475 12.1366L6.4498 10.9168C5.54093 12.0977 5 13.5786 5 15.1829H7ZM12 20.1829C9.23858 20.1829 7 17.9443 7 15.1829H5C5 19.0489 8.13401 22.1829 12 22.1829V20.1829ZM17 15.1829C17 17.9443 14.7614 20.1829 12 20.1829V22.1829C15.866 22.1829 19 19.0489 19 15.1829H17ZM15.9653 12.1366C16.6145 12.9802 17 14.0351 17 15.1829H19C19 13.5786 18.4591 12.0977 17.5502 10.9168L15.9653 12.1366ZM16.0252 10.1829H7.9748V12.1829H16.0252V10.1829ZM17.5502 10.9168C17.1635 10.4143 16.5786 10.1829 16.0252 10.1829V12.1829C16.0299 12.1829 16.0267 12.184 16.0159 12.1791C16.0039 12.1736 15.9838 12.1607 15.9653 12.1366L17.5502 10.9168ZM8.03475 12.1366C8.01623 12.1607 7.99606 12.1736 7.98405 12.1791C7.97333 12.184 7.97009 12.1829 7.9748 12.1829V10.1829C7.42143 10.1829 6.83652 10.4143 6.4498 10.9168L8.03475 12.1366Z" fill="#FFFCEE"/>
<path d="M14 11.1829L15.7486 6.8115C15.9004 6.43184 16.2681 6.18289 16.677 6.18289H19" stroke="#FFFCEE" stroke-width="2" stroke-linecap="round" stroke-linejoin="round"/>
<path d="M9 11.1829L7.5 3.68289" stroke="#FFFCEE" stroke-width="2" stroke-linecap="round" stroke-linejoin="round"/>
</svg>
