<svg width="40" height="40" viewBox="0 0 40 40" fill="none" xmlns="http://www.w3.org/2000/svg">
<path fill-rule="evenodd" clip-rule="evenodd" d="M18.1355 10.641C17.2354 11.2354 16.1622 12.1513 14.5767 13.5103L12.91 14.9389C11.0761 16.5108 10.5742 16.9879 10.3049 17.5735C10.0356 18.159 9.99995 18.8506 9.99995 21.266V28.3333C9.99995 29.9518 10.0035 30.998 10.1071 31.7688C10.2043 32.4917 10.3612 32.7183 10.4881 32.8452C10.615 32.9721 10.8416 33.129 11.5645 33.2262C12.3353 33.3298 13.3815 33.3333 14.9999 33.3333H24.9999C26.6184 33.3333 27.6646 33.3298 28.4354 33.2262C29.1583 33.129 29.3849 32.9721 29.5118 32.8452C29.6387 32.7183 29.7956 32.4917 29.8928 31.7688C29.9964 30.998 29.9999 29.9518 29.9999 28.3333V21.266C29.9999 18.8506 29.9643 18.159 29.695 17.5735C29.4257 16.9879 28.9238 16.5108 27.0899 14.9389L25.4232 13.5103C23.8377 12.1513 22.7645 11.2354 21.8644 10.641C21.0034 10.0723 20.4743 9.91872 19.9999 9.91872C19.5256 9.91872 18.9965 10.0723 18.1355 10.641ZM16.2984 7.85954C17.4526 7.09729 18.6247 6.58539 19.9999 6.58539C21.3752 6.58539 22.5473 7.09729 23.7015 7.85954C24.7967 8.5829 26.0278 9.63817 27.5115 10.91L29.2592 12.408C29.3399 12.4772 29.4196 12.5454 29.4983 12.6127C30.9826 13.8827 32.1103 14.8477 32.7234 16.1806C33.3364 17.5135 33.3351 18.9978 33.3335 20.9513C33.3334 21.0549 33.3333 21.1598 33.3333 21.266L33.3333 28.4431C33.3334 29.9205 33.3334 31.1936 33.1964 32.213C33.0495 33.3055 32.7183 34.3528 31.8688 35.2022C31.0194 36.0516 29.9721 36.3829 28.8796 36.5298C27.8602 36.6668 26.5871 36.6668 25.1096 36.6667H14.8903C13.4128 36.6668 12.1397 36.6668 11.1203 36.5298C10.0278 36.3829 8.98052 36.0516 8.13108 35.2022C7.28164 34.3528 6.9504 33.3055 6.80351 32.213C6.66645 31.1936 6.66653 29.9205 6.66661 28.443L6.66661 21.266C6.66661 21.1598 6.66652 21.0549 6.66643 20.9513C6.66475 18.9978 6.66347 17.5135 7.27653 16.1806C7.88958 14.8477 9.01734 13.8827 10.5016 12.6127C10.5803 12.5454 10.66 12.4772 10.7407 12.408L12.4074 10.9795C12.4345 10.9562 12.4615 10.9331 12.4884 10.91C13.9721 9.63817 15.2032 8.5829 16.2984 7.85954Z" fill="#A940FF"/>
<path fill-rule="evenodd" clip-rule="evenodd" d="M14.1667 26.6666C14.1667 24.8257 15.6591 23.3333 17.5001 23.3333H22.5001C24.341 23.3333 25.8334 24.8257 25.8334 26.6666V35C25.8334 35.9205 25.0872 36.6666 24.1667 36.6666C23.2463 36.6666 22.5001 35.9205 22.5001 35V26.6666H17.5001V35C17.5001 35.9205 16.7539 36.6666 15.8334 36.6666C14.9129 36.6666 14.1667 35.9205 14.1667 35V26.6666Z" fill="#A940FF"/>
</svg>
