<svg width="23" height="23" viewBox="0 0 23 23" fill="none" xmlns="http://www.w3.org/2000/svg">
<path d="M11.1418 2.87531C6.57733 2.87531 2.87622 6.57642 2.87622 11.1409C2.87622 15.7054 6.57733 19.4066 11.1418 19.4066C15.7064 19.4066 19.4075 15.7054 19.4075 11.1409C19.4075 6.57642 15.7064 2.87531 11.1418 2.87531Z" stroke="#676170" stroke-width="2" stroke-miterlimit="10"/>
<path d="M9.88318 9.88388H11.3213V15.0969" stroke="#676170" stroke-width="2" stroke-linecap="round" stroke-linejoin="round"/>
<path d="M9.34326 15.274H13.2993" stroke="#676170" stroke-width="2" stroke-miterlimit="10" stroke-linecap="round"/>
<path d="M11.1453 5.84064C10.9136 5.84064 10.6872 5.90933 10.4946 6.03804C10.3019 6.16674 10.1518 6.34968 10.0632 6.56371C9.97451 6.77774 9.95131 7.01325 9.99651 7.24046C10.0417 7.46768 10.1533 7.67638 10.3171 7.8402C10.4809 8.00401 10.6896 8.11556 10.9168 8.16076C11.144 8.20595 11.3795 8.18276 11.5936 8.0941C11.8076 8.00545 11.9905 7.85532 12.1192 7.6627C12.2479 7.47008 12.3166 7.24362 12.3166 7.01195C12.3166 6.7013 12.1932 6.40337 11.9736 6.18371C11.7539 5.96404 11.456 5.84064 11.1453 5.84064Z" fill="#676170"/>
</svg>
