<svg width="30" height="31" viewBox="0 0 30 31" fill="none" xmlns="http://www.w3.org/2000/svg">
<path d="M15.0088 3.03507C19.019 3.03507 19.4938 3.05265 21.0709 3.12298C22.5366 3.18745 23.3281 3.43359 23.8558 3.63871C24.5534 3.90829 25.0576 4.23648 25.5794 4.75807C26.1071 5.28551 26.4295 5.78366 26.6992 6.48106C26.9044 7.00851 27.1507 7.80554 27.2152 9.26481C27.2855 10.8471 27.3031 11.3218 27.3031 15.3246C27.3031 19.3332 27.2855 19.8079 27.2152 21.3844C27.1507 22.8495 26.9044 23.6407 26.6992 24.1681C26.4295 24.8655 26.1012 25.3695 25.5794 25.8911C25.0518 26.4185 24.5534 26.7409 23.8558 27.0105C23.3281 27.2156 22.5308 27.4617 21.0709 27.5262C19.488 27.5965 19.0131 27.6141 15.0088 27.6141C10.9986 27.6141 10.5237 27.5965 8.94665 27.5262C7.48095 27.4617 6.68947 27.2156 6.16181 27.0105C5.46414 26.7409 4.95994 26.4127 4.43815 25.8911C3.91049 25.3637 3.58804 24.8655 3.31835 24.1681C3.11315 23.6407 2.86691 22.8436 2.80242 21.3844C2.73207 19.802 2.71448 19.3273 2.71448 15.3246C2.71448 11.316 2.73207 10.8413 2.80242 9.26481C2.86691 7.79968 3.11315 7.00851 3.31835 6.48106C3.58804 5.78366 3.91636 5.27965 4.43815 4.75807C4.9658 4.23062 5.46414 3.90829 6.16181 3.63871C6.68947 3.43359 7.48681 3.18745 8.94665 3.12298C10.5237 3.05265 10.9986 3.03507 15.0088 3.03507ZM15.0088 0.333374C10.9341 0.333374 10.4241 0.350956 8.82353 0.421282C7.22885 0.491608 6.1325 0.749471 5.18272 1.11868C4.19191 1.50548 3.35353 2.01534 2.52101 2.8534C1.68263 3.68559 1.17256 4.52365 0.785617 5.50821C0.416259 6.46348 0.158296 7.55353 0.0879422 9.1476C0.0175884 10.7534 0 11.2632 0 15.3363C0 19.4094 0.0175884 19.9192 0.0879422 21.5192C0.158296 23.1132 0.416259 24.2091 0.785617 25.1585C1.17256 26.149 1.68263 26.987 2.52101 27.8192C3.35353 28.6514 4.19191 29.1671 5.17686 29.5481C6.1325 29.9173 7.22298 30.1751 8.81767 30.2455C10.4182 30.3158 10.9283 30.3334 15.0029 30.3334C19.0776 30.3334 19.5876 30.3158 21.1882 30.2455C22.7829 30.1751 23.8792 29.9173 24.829 29.5481C25.814 29.1671 26.6523 28.6514 27.4849 27.8192C28.3174 26.987 28.8333 26.149 29.2144 25.1644C29.5837 24.2091 29.8417 23.1191 29.9121 21.525C29.9824 19.9251 30 19.4152 30 15.3422C30 11.2691 29.9824 10.7592 29.9121 9.15932C29.8417 7.56526 29.5837 6.46934 29.2144 5.51993C28.845 4.52365 28.335 3.68559 27.4966 2.8534C26.6641 2.0212 25.8257 1.50548 24.8407 1.12454C23.8851 0.755331 22.7946 0.497469 21.1999 0.427142C19.5935 0.350956 19.0834 0.333374 15.0088 0.333374Z" fill="#FFFCEE"/>
<path d="M15.0088 7.62964C10.7524 7.62964 7.29919 11.0815 7.29919 15.3362C7.29919 19.591 10.7524 23.0428 15.0088 23.0428C19.2652 23.0428 22.7184 19.591 22.7184 15.3362C22.7184 11.0815 19.2652 7.62964 15.0088 7.62964ZM15.0088 20.3352C12.2474 20.3352 10.0078 18.0965 10.0078 15.3362C10.0078 12.5759 12.2474 10.3372 15.0088 10.3372C17.7702 10.3372 20.0098 12.5759 20.0098 15.3362C20.0098 18.0965 17.7702 20.3352 15.0088 20.3352Z" fill="#FFFCEE"/>
<path d="M24.8232 7.32494C24.8232 8.32123 24.0141 9.12412 23.0233 9.12412C22.0267 9.12412 21.2234 8.31537 21.2234 7.32494C21.2234 6.32865 22.0325 5.52576 23.0233 5.52576C24.0141 5.52576 24.8232 6.33451 24.8232 7.32494Z" fill="#FFFCEE"/>
</svg>
