<svg width="163" height="72" viewBox="0 0 163 72" fill="none" xmlns="http://www.w3.org/2000/svg">
<path d="M4.99707 37.0118C4.99707 31.9981 7.37282 29.0104 11.7942 27.995L14.1033 27.4635C18.7231 26.4021 21.1639 28.2822 21.1639 33.296V61.7299C21.1639 66.6119 18.7231 69.7455 14.1033 70.807L11.7942 71.3385C7.37282 72.354 4.99707 70.3278 4.99707 65.4458V37.0118Z" fill="#FFFCEE"/>
<path d="M24.8585 61.2765C24.8585 56.6578 26.509 54.6967 28.6197 51.9677L42.0807 34.5577L32.5777 36.7408C27.9579 37.8023 25.5171 36.7139 25.5171 32.0968V31.4368C25.5171 27.0165 27.9595 24.608 32.5777 23.5465L55.6735 18.2376C61.2169 16.9635 63.3943 19.564 63.3943 22.5326V23.1926C63.3943 27.8113 61.8771 29.6772 59.6331 32.5014L45.7753 50.0019L56.4654 47.5442C61.1502 46.4669 63.5926 47.5553 63.5926 52.174V52.834C63.5926 57.2544 61.1518 59.6629 56.4654 60.7402L32.5777 66.2299C27.0343 67.5039 24.8569 64.9035 24.8569 61.9349V61.2748L24.8585 61.2765Z" fill="#FFFCEE"/>
<path d="M65.3092 51.9805C65.3092 47.3618 66.9597 45.4007 69.0704 42.6717L82.5314 25.2616L73.0284 27.4449C68.4086 28.5063 65.9678 27.4179 65.9678 22.8008V22.1407C65.9678 17.7204 68.4102 15.3119 73.0284 14.2504L96.1242 8.94159C101.668 7.66753 103.845 10.268 103.845 13.2366V13.8966C103.845 18.5153 102.328 20.3812 100.084 23.2054L86.226 40.7059L96.9161 38.2482C101.601 37.1709 104.043 38.2593 104.043 42.878V43.5381C104.043 47.9584 101.603 50.3669 96.9161 51.4426L73.0284 56.9324C67.485 58.2064 65.3076 55.6059 65.3076 52.6373V51.9773L65.3092 51.9805Z" fill="#FFFCEE"/>
<path d="M104.704 28.2809C104.704 15.3499 114.339 3.7675 127.668 0.70372C140.997 -2.36006 150.565 4.80993 150.565 17.7394C150.565 30.6688 140.997 42.3035 127.668 45.3673C114.272 48.4453 104.704 41.277 104.704 28.2809ZM134.729 21.3806C134.729 16.4986 132.023 14.0202 127.668 15.0214C123.182 16.0527 120.541 19.5624 120.541 24.6427C120.541 29.7231 123.247 31.9381 127.668 30.9211C132.023 29.9199 134.729 26.2643 134.729 21.3822V21.3806Z" fill="#FFFCEE"/>
<path d="M23.3287 9.1524C18.2805 8.74623 14.2955 5.67929 12.7291 0.990804C12.5165 0.352979 11.5484 0.57511 11.3357 1.31131C9.76934 6.71853 5.78436 11.618 0.736084 14.3454C0.0489094 14.7167 0.0489094 15.6829 0.736084 15.7385C5.78436 16.1446 9.76934 19.2117 11.3357 23.9001C11.5484 24.538 12.5165 24.3158 12.7291 23.5796C14.2955 18.1724 18.2805 13.2728 23.3287 10.5454C24.0159 10.1742 24.0159 9.20794 23.3287 9.1524Z" fill="#FFFCEE"/>
<path d="M162.313 39.3778C157.745 39.0112 154.139 36.2346 152.722 31.9936C152.529 31.4161 151.654 31.6176 151.462 32.284C150.045 37.1771 146.439 41.6102 141.872 44.0774C141.25 44.4137 141.25 45.288 141.872 45.3371C146.439 45.7036 150.045 48.4803 151.462 52.7213C151.656 53.2988 152.53 53.0973 152.722 52.4309C154.139 47.5378 157.745 43.1047 162.313 40.6375C162.935 40.3012 162.935 39.4269 162.313 39.3778Z" fill="#FFFCEE"/>
</svg>
