<svg width="24" height="25" viewBox="0 0 24 25" fill="none" xmlns="http://www.w3.org/2000/svg">
<path d="M4 13.1829C4 11.2973 4 10.3545 4.58579 9.76868C5.17157 9.18289 6.11438 9.18289 8 9.18289H16C17.8856 9.18289 18.8284 9.18289 19.4142 9.76868C20 10.3545 20 11.2973 20 13.1829V15.1829C20 18.0113 20 19.4255 19.1213 20.3042C18.2426 21.1829 16.8284 21.1829 14 21.1829H10C7.17157 21.1829 5.75736 21.1829 4.87868 20.3042C4 19.4255 4 18.0113 4 15.1829V13.1829Z" stroke="#807A87" stroke-width="2"/>
<path d="M16 8.18289V7.18289C16 4.97375 14.2091 3.18289 12 3.18289V3.18289C9.79086 3.18289 8 4.97375 8 7.18289V8.18289" stroke="#807A87" stroke-width="2" stroke-linecap="round"/>
<circle cx="12" cy="15.1829" r="2" fill="#807A87"/>
</svg>
