<svg width="40" height="40" viewBox="0 0 40 40" fill="none" xmlns="http://www.w3.org/2000/svg">
<path fill-rule="evenodd" clip-rule="evenodd" d="M13.4519 10.0809L6.66659 12.795V29.2049L12.4891 26.8759C12.9608 26.6872 13.4799 26.652 13.9728 26.7752L26.548 29.919L33.3333 27.2049V10.795L27.5107 13.124C27.0391 13.3127 26.5199 13.3479 26.0271 13.2247L13.4519 10.0809ZM12.4891 6.87591C12.9608 6.68724 13.4799 6.65201 13.9728 6.77522L26.548 9.91903L33.3524 7.19726C34.9398 6.56229 36.6666 7.73137 36.6666 9.44108V27.8255C36.6666 28.8137 36.065 29.7023 35.1474 30.0693L27.5107 33.124C27.0391 33.3127 26.5199 33.3479 26.0271 33.2247L13.4519 30.0809L6.64745 32.8027C5.06002 33.4377 3.33325 32.2686 3.33325 30.5589V12.1744C3.33325 11.1862 3.93488 10.2976 4.85239 9.9306L12.4891 6.87591Z" fill="#807A87"/>
<path fill-rule="evenodd" clip-rule="evenodd" d="M28.3333 11.6667V31.6667H25V11.6667H28.3333Z" fill="#807A87"/>
<path fill-rule="evenodd" clip-rule="evenodd" d="M15.0001 8.33331L15.0001 28.3333L11.6667 28.3333L11.6667 8.33331L15.0001 8.33331Z" fill="#807A87"/>
</svg>
