<svg width="37" height="43" viewBox="0 0 37 43" fill="none" xmlns="http://www.w3.org/2000/svg">
<path fill-rule="evenodd" clip-rule="evenodd" d="M19.552 42.734C23.4711 40.6542 37 32.4922 37 18.928C37 8.47437 28.7173 0 18.5 0C8.28273 0 0 8.47437 0 18.928C0 32.4922 13.5289 40.6542 17.448 42.734C18.1163 43.0887 18.8837 43.0887 19.552 42.734ZM18.5 27.0401C22.8788 27.0401 26.4286 23.4082 26.4286 18.928C26.4286 14.4479 22.8788 10.816 18.5 10.816C14.1212 10.816 10.5714 14.4479 10.5714 18.928C10.5714 23.4082 14.1212 27.0401 18.5 27.0401Z" fill="#A940FF"/>
</svg>
