<svg width="40" height="40" viewBox="0 0 40 40" fill="none" xmlns="http://www.w3.org/2000/svg">
<path fill-rule="evenodd" clip-rule="evenodd" d="M18.3333 8.33333C12.8105 8.33333 8.33333 12.8105 8.33333 18.3333C8.33333 23.8562 12.8105 28.3333 18.3333 28.3333C23.8562 28.3333 28.3333 23.8562 28.3333 18.3333C28.3333 12.8105 23.8562 8.33333 18.3333 8.33333ZM5 18.3333C5 10.9695 10.9695 5 18.3333 5C25.6971 5 31.6667 10.9695 31.6667 18.3333C31.6667 25.6971 25.6971 31.6667 18.3333 31.6667C10.9695 31.6667 5 25.6971 5 18.3333Z" fill="#807A87"/>
<path fill-rule="evenodd" clip-rule="evenodd" d="M27.1549 27.1548C27.8058 26.504 28.8611 26.504 29.5119 27.1548L34.5119 32.1548C35.1628 32.8057 35.1628 33.861 34.5119 34.5119C33.8611 35.1627 32.8058 35.1627 32.1549 34.5119L27.1549 29.5119C26.504 28.861 26.504 27.8057 27.1549 27.1548Z" fill="#807A87"/>
</svg>
