<svg width="48" height="48" viewBox="0 0 48 48" fill="none" xmlns="http://www.w3.org/2000/svg">
<path fill-rule="evenodd" clip-rule="evenodd" d="M37.6196 10.3805C37.3655 10.4601 37.0581 10.5618 36.6796 10.6879L15.8586 17.6283C13.4599 18.4279 11.8115 18.9808 10.7457 19.4992C10.2747 19.7283 10.0322 19.8967 9.911 20C10.0322 20.1033 10.2747 20.2717 10.7457 20.5008C11.8115 21.0192 13.4599 21.5721 15.8586 22.3717L20.577 23.9445C20.6375 23.9647 20.6986 23.9848 20.7602 24.0051C21.4998 24.2489 22.3001 24.5126 22.8938 25.1063C23.4874 25.6999 23.7512 26.5002 23.9949 27.2399C24.0152 27.3014 24.0353 27.3625 24.0555 27.423L25.6283 32.1415C26.4279 34.5401 26.9808 36.1886 27.4993 37.2543C27.7284 37.7253 27.8968 37.9679 28 38.089C28.1033 37.9679 28.2717 37.7253 28.5008 37.2543C29.0193 36.1886 29.5722 34.5401 30.3717 32.1415L37.3121 11.3204C37.4382 10.9419 37.5399 10.6345 37.6196 10.3805ZM38.5296 10.1576C38.5295 10.1577 38.5263 10.1578 38.5205 10.1577C38.5268 10.1574 38.5297 10.1574 38.5296 10.1576ZM37.8424 9.47955C37.8422 9.47371 37.8424 9.47055 37.8425 9.47043C37.8426 9.4703 37.8427 9.47323 37.8424 9.47955ZM27.8795 38.2017C27.8794 38.2011 27.8842 38.1977 27.8939 38.1935C27.8843 38.2003 27.8795 38.2024 27.8795 38.2017ZM28.1061 38.1935C28.1158 38.1977 28.1206 38.2011 28.1206 38.2017C28.1206 38.2024 28.1157 38.2003 28.1061 38.1935ZM9.79828 19.8794C9.79894 19.8794 9.80235 19.8842 9.8065 19.8939C9.79969 19.8843 9.79762 19.8795 9.79828 19.8794ZM9.8065 20.1061C9.80235 20.1158 9.79894 20.1206 9.79828 20.1206C9.79762 20.1205 9.79969 20.1157 9.8065 20.1061ZM37.86 7.2218C38.4522 7.11645 39.4258 7.05254 40.1867 7.81337C40.9475 8.5742 40.8836 9.54785 40.7782 10.1401C40.6753 10.7185 40.4384 11.4289 40.1899 12.1738L40.1581 12.2691L33.2178 33.0901L33.1791 33.2063C32.4275 35.4611 31.8143 37.3009 31.1985 38.5667C30.6335 39.7281 29.7117 41.1754 28 41.1754C26.2883 41.1754 25.3665 39.7281 24.8015 38.5667C24.1858 37.3009 23.5725 35.4611 22.821 33.2063L22.7823 33.0901L21.2095 28.3717C21.0461 27.8816 20.9528 27.6059 20.866 27.4062C20.8272 27.3169 20.8011 27.2706 20.7867 27.2477C20.7799 27.2369 20.7758 27.2316 20.7744 27.2298L20.7724 27.2276L20.7702 27.2257C20.7684 27.2243 20.7631 27.2202 20.7523 27.2134C20.7295 27.199 20.6831 27.1729 20.5939 27.1341C20.3942 27.0473 20.1184 26.9539 19.6283 26.7906L14.9099 25.2178L14.7938 25.1791C12.539 24.4275 10.6991 23.8143 9.43331 23.1985C8.27193 22.6335 6.82458 21.7117 6.82458 20C6.82458 18.2883 8.27193 17.3665 9.43331 16.8015C10.6991 16.1857 12.539 15.5725 14.7937 14.821L14.9099 14.7822L35.731 7.84188C35.7628 7.83129 35.7945 7.8207 35.8262 7.81014C36.5711 7.56167 37.2815 7.32471 37.86 7.2218Z" fill="#FFFCEE"/>
</svg>
