<svg width="31" height="31" viewBox="0 0 31 31" fill="none" xmlns="http://www.w3.org/2000/svg">
<path d="M23.0918 19.2432C22.084 19.244 21.1167 19.6402 20.3978 20.3465L10.263 15.8307C10.263 15.6768 10.263 15.5485 10.263 15.3946C10.263 15.2406 10.263 15.1123 10.263 14.9712L20.3978 10.4426C21.0326 11.0649 21.8632 11.4482 22.7485 11.5275C23.6339 11.6067 24.5194 11.3771 25.2546 10.8776C25.9899 10.3781 26.5296 9.63947 26.782 8.78719C27.0345 7.93491 26.9841 7.02151 26.6395 6.20214C26.2949 5.38277 25.6773 4.70793 24.8916 4.29225C24.1059 3.87658 23.2005 3.74568 22.3293 3.92181C21.458 4.09793 20.6746 4.5702 20.112 5.25843C19.5495 5.94665 19.2425 6.80838 19.2432 7.69727V8.13345L9.10842 12.6492C8.56751 12.1178 7.88166 11.758 7.13697 11.615C6.39228 11.472 5.62195 11.5521 4.92267 11.8454C4.22339 12.1387 3.62633 12.632 3.20644 13.2634C2.78655 13.8949 2.56255 14.6363 2.56255 15.3946C2.56255 16.1529 2.78655 16.8942 3.20644 17.5257C3.62633 18.1571 4.22339 18.6504 4.92267 18.9437C5.62195 19.237 6.39228 19.3172 7.13697 19.1742C7.88166 19.0312 8.56751 18.6714 9.10842 18.1399L19.2432 22.6685V23.0919C19.2432 23.853 19.4689 24.5971 19.8918 25.23C20.3147 25.863 20.9158 26.3562 21.619 26.6475C22.3223 26.9388 23.0961 27.0151 23.8427 26.8666C24.5892 26.7181 25.275 26.3515 25.8132 25.8133C26.3515 25.275 26.718 24.5893 26.8665 23.8427C27.015 23.0961 26.9388 22.3223 26.6475 21.619C26.3562 20.9158 25.8629 20.3147 25.23 19.8918C24.5971 19.4689 23.853 19.2432 23.0918 19.2432Z" fill="#FCFBF0"/>
</svg>
