<svg width="24" height="25" viewBox="0 0 24 25" fill="none" xmlns="http://www.w3.org/2000/svg">
<path d="M22 12.1829L22.7809 12.8076L23.2806 12.1829L22.7809 11.5582L22 12.1829ZM13 11.1829C12.4477 11.1829 12 11.6306 12 12.1829C12 12.7352 12.4477 13.1829 13 13.1829L13 11.1829ZM18.7809 17.8076L22.7809 12.8076L21.2191 11.5582L17.2191 16.5582L18.7809 17.8076ZM22.7809 11.5582L18.7809 6.5582L17.2191 7.80759L21.2191 12.8076L22.7809 11.5582ZM22 11.1829L13 11.1829L13 13.1829L22 13.1829L22 11.1829Z" fill="#807A87"/>
<path d="M14 16.051L14 16.7944C14 18.4127 14 19.2219 13.526 19.7814C13.0521 20.3409 12.2539 20.4739 10.6576 20.74L8.98639 21.0185C5.7433 21.559 4.12175 21.8293 3.06088 20.9306C2 20.0319 2 18.388 2 15.1001L2 9.26565C2 5.97782 2 4.33391 3.06088 3.43521C4.12175 2.53652 5.7433 2.80677 8.9864 3.34729L10.6576 3.62582C12.2539 3.89188 13.0521 4.02491 13.526 4.5844C14 5.14389 14 5.95306 14 7.5714L14 8.11693" stroke="#807A87" stroke-width="2"/>
</svg>
