<svg width="40" height="40" viewBox="0 0 40 40" fill="none" xmlns="http://www.w3.org/2000/svg">
<path fill-rule="evenodd" clip-rule="evenodd" d="M11.0518 27.2886C13.6563 25.7897 16.8009 25 20 25C23.1991 25 26.3436 25.7897 28.9481 27.2886C31.5517 28.7869 33.5313 30.9504 34.4485 33.5177C34.7582 34.3846 34.3065 35.3383 33.4397 35.648C32.5729 35.9577 31.6192 35.506 31.3095 34.6392C30.7074 32.9539 29.3391 31.3595 27.2855 30.1777C25.2328 28.9964 22.6711 28.3333 20 28.3333C17.3289 28.3333 14.7672 28.9964 12.7145 30.1777C10.6608 31.3595 9.2926 32.9539 8.69049 34.6392C8.3808 35.506 7.42706 35.9577 6.56025 35.648C5.69343 35.3383 5.24179 34.3846 5.55147 33.5177C6.46869 30.9504 8.44832 28.7869 11.0518 27.2886Z" fill="#807A87"/>
<path fill-rule="evenodd" clip-rule="evenodd" d="M20.0001 8.33333C17.2387 8.33333 15.0001 10.5719 15.0001 13.3333C15.0001 16.0948 17.2387 18.3333 20.0001 18.3333C22.7615 18.3333 25.0001 16.0948 25.0001 13.3333C25.0001 10.5719 22.7615 8.33333 20.0001 8.33333ZM11.6667 13.3333C11.6667 8.73096 15.3977 5 20.0001 5C24.6025 5 28.3334 8.73096 28.3334 13.3333C28.3334 17.9357 24.6025 21.6667 20.0001 21.6667C15.3977 21.6667 11.6667 17.9357 11.6667 13.3333Z" fill="#807A87"/>
</svg>
